<svg xmlns="http://www.w3.org/2000/svg" width="24" height="24" aria-hidden="true" focusable="false" viewBox="0 0 24 24"><title>Amazon Pay</title><defs><clipPath id="pm-amazon-pay-rounded"><rect width="24" height="24" rx="5"/></clipPath></defs><g clip-path="url(#pm-amazon-pay-rounded)"><rect width="24" height="24" fill="#fff"/><rect width="22.5" height="22.5" x=".75" y=".75" fill="none" stroke="#E5E7EB" rx="4.25"/><svg x=".75" y="4.688" width="22.5" height="14.625" viewBox="0 0 40 26" preserveAspectRatio="xMidYMid meet"><path fill="#333e48" d="M40 0H0v25h40V0Z"/><g fill-rule="evenodd"><path fill="#f90" d="M24.05 11.1a12.3 12.3 0 0 1-6.95 2.13c-3.28 0-6.24-1.21-8.48-3.24-.18-.16-.02-.37.19-.25a16.9 16.9 0 0 0 14.97.93c.32-.14.58.2.27.44zm.79-.89c-.25-.3-1.6-.14-2.2-.07-.18.02-.21-.14-.05-.25 1.08-.76 2.84-.54 3.05-.29s-.06 2.03-1.06 2.87c-.16.13-.3.06-.24-.11.23-.57.74-1.84.5-2.15z"/><path fill="#fff" d="M22.7 4.5v-.73a.18.18 0 0 1 .18-.19h3.29c.1 0 .19.08.19.18v.64c0 .1-.09.24-.25.46l-1.7 2.43c.63-.01 1.3.08 1.88.4.13.08.16.18.17.29v.78c0 .11-.12.23-.24.17a3.79 3.79 0 0 0-3.48 0c-.11.07-.23-.06-.23-.16v-.75c0-.12 0-.32.12-.5l1.98-2.84h-1.72a.18.18 0 0 1-.2-.18zm-12 4.59h-1a.19.19 0 0 1-.19-.17V3.78c0-.1.09-.19.2-.19h.93c.1 0 .17.08.18.18v.67h.02c.24-.65.7-.95 1.32-.95.62 0 1.02.3 1.3.95a1.42 1.42 0 0 1 1.38-.95c.42 0 .88.17 1.16.56.32.43.25 1.06.25 1.61V8.9c0 .1-.09.18-.2.18h-1a.19.19 0 0 1-.18-.18V6.18c0-.22.02-.76-.02-.97-.08-.34-.3-.44-.6-.44-.23 0-.49.16-.59.42s-.1.7-.1.99V8.9c0 .1-.08.18-.19.18h-1a.19.19 0 0 1-.18-.18V6.18c0-.58.1-1.42-.61-1.42-.72 0-.7.82-.7 1.42V8.9c0 .1-.08.18-.19.18zm18.5-4.56c-.74 0-.78 1-.78 1.64s-.01 1.96.77 1.96S30 7.05 30 6.4c0-.43-.01-.95-.15-1.36-.1-.36-.33-.5-.65-.5zm0-1.04c1.48 0 2.28 1.27 2.28 2.9 0 1.56-.89 2.8-2.29 2.8-1.46 0-2.25-1.27-2.25-2.86 0-1.6.8-2.84 2.25-2.84zm4.2 5.6h-.99a.19.19 0 0 1-.18-.19V3.76a.19.19 0 0 1 .2-.17h.92a.19.19 0 0 1 .18.15v.78h.02c.28-.7.67-1.03 1.36-1.03.45 0 .89.16 1.17.6.26.41.26 1.1.26 1.6v3.23a.19.19 0 0 1-.2.17h-1a.19.19 0 0 1-.17-.17V6.13c0-.56.06-1.38-.63-1.38a.65.65 0 0 0-.58.41 2.3 2.3 0 0 0-.16.97V8.9a.2.2 0 0 1-.2.18zm-12.32.03a.2.2 0 0 1-.24.03c-.33-.28-.39-.4-.57-.67-.55.56-.94.73-1.65.73-.84 0-1.5-.52-1.5-1.56 0-.82.44-1.37 1.07-1.64.54-.24 1.3-.28 1.88-.35v-.13c0-.23.02-.52-.12-.72-.12-.19-.36-.26-.56-.26-.39 0-.72.2-.8.6-.02.09-.1.18-.18.18l-.97-.1c-.08-.02-.17-.09-.15-.21.22-1.18 1.29-1.53 2.24-1.53.48 0 1.12.13 1.5.5.5.45.44 1.06.44 1.72v1.56c0 .47.2.67.38.92.07.1.08.2 0 .27l-.77.67zm-1-2.44c0 .4 0 .72-.2 1.06-.15.29-.4.46-.69.46-.38 0-.6-.3-.6-.73 0-.85.76-1 1.48-1v.21zM7.95 9.12a.2.2 0 0 1-.24.03c-.33-.28-.39-.4-.57-.67-.55.56-.94.73-1.65.73-.84 0-1.5-.52-1.5-1.56 0-.82.44-1.37 1.07-1.64.54-.24 1.3-.28 1.88-.35v-.13c0-.24.02-.52-.12-.72-.12-.19-.36-.26-.56-.26-.39 0-.72.2-.8.6-.03.09-.1.18-.18.18l-.97-.1c-.09-.02-.18-.09-.15-.21.22-1.18 1.28-1.53 2.24-1.53.48 0 1.12.13 1.5.5.5.45.44 1.06.44 1.72v1.56c0 .46.2.67.38.92.07.1.08.2 0 .27l-.77.66zm-1-2.44c0 .4 0 .72-.19 1.06-.16.29-.4.46-.69.46-.38 0-.6-.3-.6-.73 0-.85.76-1 1.48-1v.21zm14.19 8.44a2.5 2.5 0 0 0-1.5.52v3.1c.48.37.97.54 1.48.54 1.02 0 1.54-.69 1.54-2.07 0-1.4-.5-2.09-1.52-2.09zm-1.57-.14a3.16 3.16 0 0 1 .9-.56 2.65 2.65 0 0 1 .98-.2c.36 0 .68.08.97.21a2 2 0 0 1 .74.58c.2.25.35.56.46.92s.16.77.16 1.22c0 .46-.05.88-.17 1.25s-.28.69-.48.95a2.19 2.19 0 0 1-.76.6 2.49 2.49 0 0 1-2.72-.44v2.62c0 .15-.08.22-.23.22h-.66c-.14 0-.22-.07-.22-.22v-7.51c0-.15.08-.22.22-.22h.5c.14 0 .23.07.25.22l.06.36zm7 4.38a2.26 2.26 0 0 0 .77-.14c.27-.1.53-.24.77-.43v-1.13a5.49 5.49 0 0 0-.58-.11c-.2-.03-.4-.04-.6-.04-.84 0-1.26.32-1.26.97 0 .28.08.5.23.65s.38.23.67.23zm-1.3-4-.09.04a.3.3 0 0 1-.1.01c-.09 0-.14-.06-.14-.2v-.3c0-.1.02-.18.05-.22s.09-.08.18-.11c.23-.1.53-.2.88-.25a5.89 5.89 0 0 1 1.05-.1c.7 0 1.23.14 1.56.43s.5.75.5 1.36v3.81c0 .15-.07.22-.22.22h-.48c-.14 0-.22-.07-.25-.2l-.05-.38c-.27.24-.57.41-.89.54a2.63 2.63 0 0 1-.96.19c-.54 0-.96-.15-1.28-.45s-.47-.7-.47-1.21c0-.55.2-.98.58-1.3s.91-.49 1.57-.49c.41 0 .88.07 1.4.2v-.74c0-.4-.09-.69-.27-.85s-.49-.25-.93-.25a5.7 5.7 0 0 0-1.64.26zm7.52 5.69c-.2.5-.44.88-.7 1.1s-.6.34-1.03.34a2.37 2.37 0 0 1-.64-.08c-.08-.02-.14-.06-.18-.1s-.05-.13-.05-.24v-.29c0-.14.05-.2.16-.2a.95.95 0 0 1 .17.01 1.61 1.61 0 0 0 .3.03c.28 0 .5-.07.66-.2s.3-.38.42-.74l.22-.57-2.16-5.31a.84.84 0 0 1-.08-.27c0-.09.06-.13.16-.13h.67c.12 0 .2.02.25.05s.08.12.13.25l1.56 4.33 1.5-4.33c.05-.13.1-.21.14-.25s.13-.05.25-.05h.62c.1 0 .16.04.16.13a1 1 0 0 1-.08.27l-2.46 6.25z"/></g><path fill="#f90" d="M40 24.87H0V26h40v-1.13z"/></svg></g></svg>
