<svg xmlns="http://www.w3.org/2000/svg" width="24" height="24" aria-hidden="true" focusable="false" viewBox="0 0 24 24"><title>Bank Transfer</title><defs><clipPath id="bt-rounded"><rect width="24" height="24" rx="5"/></clipPath></defs><g clip-path="url(#bt-rounded)"><rect width="24" height="24" fill="#fff"/><rect width="22.5" height="22.5" x=".75" y=".75" fill="none" stroke="#E5E7EB" rx="4.25"/><path fill="#2563EB" d="M4.6 10.3l3.4-2.2 3.4 2.2v1H4.6v-1zm.8 2.2h.9v4.6h-.9v-4.6zm2 0h.9v4.6h-.9v-4.6zm2 0h.9v4.6h-.9v-4.6z"/><path fill="#7C3AED" d="M12.6 10.3l3.4-2.2 3.4 2.2v1h-6.8v-1zm.8 2.2h.9v4.6h-.9v-4.6zm2 0h.9v4.6h-.9v-4.6zm2 0h.9v4.6h-.9v-4.6z"/><path fill="none" stroke="#10B981" stroke-linecap="round" stroke-linejoin="round" stroke-width="1.4" d="M10.7 13.2h2.6m-2.6 0l.9-.9m-.9.9l.9.9M13.3 15.8h-2.6m2.6 0l-.9-.9m.9.9l-.9.9" opacity=".95"/></g></svg>
