<svg xmlns="http://www.w3.org/2000/svg" width="24" height="24" aria-hidden="true" focusable="false" viewBox="0 0 24 24"><title>Bitcoin</title><defs><clipPath id="btc-rounded"><rect width="24" height="24" rx="5"/></clipPath><linearGradient id="btc-bg" x1="0" x2="1" y1="0" y2="1"><stop offset="0" stop-color="#F7931A"/><stop offset="1" stop-color="#F97316"/></linearGradient><linearGradient id="btc-coin" x1="0" x2="1" y1="0" y2="1"><stop offset="0" stop-color="#FBBF24"/><stop offset="1" stop-color="#F59E0B"/></linearGradient></defs><g clip-path="url(#btc-rounded)"><rect width="24" height="24" fill="url(#btc-bg)"/><circle cx="12" cy="12" r="9.2" fill="url(#btc-coin)"/><circle cx="12" cy="12" r="9.2" fill="none" stroke="#FFF" opacity=".22"/><circle cx="12" cy="12" r="8.2" fill="none" stroke="#FFF" opacity=".12"/><path fill="#FFF" d="M17.288 10.291c.24-1.59-.974-2.45-2.64-3.03l.54-2.153-1.315-.33-.525 2.107c-.345-.087-.705-.167-1.064-.25l.526-2.127-1.32-.33-.54 2.165c-.285-.067-.565-.132-.84-.2l-1.815-.45-.35 1.407s.975.225.955.236c.535.136.63.486.615.766l-1.477 5.92c-.075.166-.24.406-.614.314.015.02-.96-.24-.96-.24l-.66 1.51 1.71.426.93.242-.54 2.19 1.32.327.54-2.17c.36.1.705.19 1.05.273l-.51 2.154 1.32.33.545-2.19c2.24.427 3.93.257 4.64-1.774.57-1.637-.03-2.58-1.217-3.196.854-.193 1.5-.76 1.68-1.93h.01zm-3.01 4.22c-.404 1.64-3.157.75-4.05.53l.72-2.9c.896.23 3.757.67 3.33 2.37zm.41-4.24c-.37 1.49-2.662.735-3.405.55l.654-2.64c.744.18 3.137.524 2.75 2.084v.006z" opacity=".22" transform="translate(0.4 0.45)"/><path fill="#FFF" d="M17.288 10.291c.24-1.59-.974-2.45-2.64-3.03l.54-2.153-1.315-.33-.525 2.107c-.345-.087-.705-.167-1.064-.25l.526-2.127-1.32-.33-.54 2.165c-.285-.067-.565-.132-.84-.2l-1.815-.45-.35 1.407s.975.225.955.236c.535.136.63.486.615.766l-1.477 5.92c-.075.166-.24.406-.614.314.015.02-.96-.24-.96-.24l-.66 1.51 1.71.426.93.242-.54 2.19 1.32.327.54-2.17c.36.1.705.19 1.05.273l-.51 2.154 1.32.33.545-2.19c2.24.427 3.93.257 4.64-1.774.57-1.637-.03-2.58-1.217-3.196.854-.193 1.5-.76 1.68-1.93h.01zm-3.01 4.22c-.404 1.64-3.157.75-4.05.53l.72-2.9c.896.23 3.757.67 3.33 2.37zm.41-4.24c-.37 1.49-2.662.735-3.405.55l.654-2.64c.744.18 3.137.524 2.75 2.084v.006z" opacity=".9"/></g></svg>
