<svg xmlns="http://www.w3.org/2000/svg" width="24" height="24" aria-hidden="true" focusable="false" viewBox="0 0 24 24"><title>Elo</title><defs><clipPath id="pm-elo-rounded"><rect width="24" height="24" rx="5"/></clipPath></defs><g clip-path="url(#pm-elo-rounded)"><rect width="24" height="24" fill="#fff"/><rect width="22.5" height="22.5" x=".75" y=".75" fill="none" stroke="#E5E7EB" rx="4.25"/><svg x=".75" y="4.688" width="22.5" height="14.625" viewBox="0 0 40 26" preserveAspectRatio="xMidYMid meet"><rect width="40" height="26" fill="#003933"/>
<path d="M4 12.1032H6.36391C6.78754 9.85391 8.74383 8.04431 11.238 8.04431C14.0744 8.04431 16.0632 10.0659 16.0632 13.114C16.0632 13.4398 16.0307 13.7007 15.9978 13.9292H8.36868C8.72739 15.3148 9.86846 16.13 11.2376 16.13C12.4111 16.13 13.2917 15.6735 13.9926 14.8747L15.3946 16.1624C14.4656 17.2222 13.0796 17.9556 11.238 17.9556C8.74383 17.9556 6.78754 16.1789 6.36391 13.9292H4V12.1032ZM14.0415 12.1032C13.9438 11.5328 13.6828 11.011 13.3081 10.6363C12.8191 10.1473 12.1017 9.83747 11.238 9.83747C10.3743 9.83747 9.67287 10.1309 9.15145 10.6527C8.79273 11.0114 8.49935 11.5004 8.35266 12.1036H14.042L14.0415 12.1032ZM17.4812 8.10965H19.5353V15.9344H23.2518V17.8907H19.5677C18.2146 17.8907 17.4812 17.1572 17.4812 15.8041V8.10965ZM23.6434 12.9997C23.6434 10.3429 25.8113 8.04431 28.6807 8.04431C31.2237 8.04431 33.2125 9.83747 33.6361 12.1032H36V13.9292H33.6361C33.196 16.1789 31.2073 17.9556 28.6807 17.9556C25.7953 17.9556 23.6434 15.6735 23.6434 13.0002V12.9997ZM28.6802 16.0322C30.3916 16.0322 31.6634 14.728 31.6634 13.0166C31.6634 11.3052 30.3592 9.96815 28.6802 9.96815C27.0013 9.96815 25.6971 11.2723 25.6971 13.0002C25.6971 14.728 27.0013 16.0322 28.6802 16.0322Z" fill="white"/></svg></g></svg>
