<svg xmlns="http://www.w3.org/2000/svg" width="24" height="24" aria-hidden="true" focusable="false" viewBox="0 0 24 24"><title>Interac</title><defs><clipPath id="pm-interac-rounded"><rect width="24" height="24" rx="5"/></clipPath></defs><g clip-path="url(#pm-interac-rounded)"><rect width="24" height="24" fill="#fff"/><rect width="22.5" height="22.5" x=".75" y=".75" fill="none" stroke="#E5E7EB" rx="4.25"/><svg x=".75" y="4.688" width="22.5" height="14.625" viewBox="0 0 40 26" preserveAspectRatio="xMidYMid meet"><defs><clipPath id="a"><path fill="none" d="M7-1h26v26H7z"/></clipPath></defs><path fill="#fdb913" d="M0 0h40v26H0z"/><g fill="#231f20" clip-path="url(#a)"><path d="M21.47 12.27v-4.5l1.17-.27v.59a1.69 1.69 0 0 1 1-.96.68.68 0 0 1 .33-.02v1.15a1.64 1.64 0 0 0-.61.12 1.07 1.07 0 0 0-.65 1.12v2.48zm-6.19 1.46a2.68 2.68 0 0 1-.2-1.3V10.2l-.6.14v-.92l.6-.14V8.27l1.26-.3v1.01l.88-.2v.91l-.88.21v2.28c0 1.04.27 1.24.27 1.24zm2.07-2.67a3.78 3.78 0 0 1 .36-1.83 2.09 2.09 0 0 1 1.46-1.04c1.37-.3 1.86.5 1.84 1.59v.58l-2.41.56v.04c0 .76.16 1.12.64 1.02a.66.66 0 0 0 .56-.67v-.18l1.14-.27v.2a1.9 1.9 0 0 1-1.7 1.86c-1.5.36-1.9-.55-1.9-1.86m1.88-2.03c-.4.1-.61.48-.62 1.13l1.21-.29v-.2c0-.48-.15-.74-.59-.64m8.98-.6c-.05-1.37.3-2.46 1.83-2.8.98-.22 1.35.03 1.53.27a1.56 1.56 0 0 1 .25 1v.07l-1.19.29v-.17c0-.52-.15-.72-.53-.62-.45.1-.63.54-.63 1.4v.39c0 .87.12 1.26.64 1.15.45-.09.51-.49.52-.83v-.23l1.2-.29v.19a2.01 2.01 0 0 1-1.73 2.11c-1.54.37-1.84-.53-1.9-1.93m-4.12 1.92c0-1.05.6-1.37 1.52-1.75.83-.35.85-.52.85-.81 0-.25-.11-.47-.52-.36a.62.62 0 0 0-.5.59 2.14 2.14 0 0 0 0 .23l-1.16.27a2.3 2.3 0 0 1 .08-.68c.18-.63.73-1.05 1.68-1.26 1.23-.29 1.64.25 1.64 1.1v1.98c0 .97.18 1.1.18 1.1l-1.14.28a2.47 2.47 0 0 1-.15-.41 1.56 1.56 0 0 1-1.1.83 1.04 1.04 0 0 1-1.38-1.11m2.36-1.43a4.3 4.3 0 0 1-.6.36.8.8 0 0 0-.55.76.4.4 0 0 0 .53.42.88.88 0 0 0 .62-.91zM8.75 16.89a.72.72 0 0 1-.6-1.12l.02-.01 1.7-.4v1.29h-.03c-.38.1-.84.2-.94.22a.71.71 0 0 1-.15.02m0 1.64a.72.72 0 0 1-.72-.72.71.71 0 0 1 .12-.39l.02-.01 1.7-.4v1.29h-.03c-.38.1-.84.2-.94.22a.76.76 0 0 1-.15.01m0 1.66a.72.72 0 0 1-.72-.72.71.71 0 0 1 .12-.4l1.72-.41v1.29h-.03l-.94.22a.75.75 0 0 1-.15.02m-.2-4.89V8.1l1.32-.32V15l-1.32.32zm3.28-.6a.81.81 0 0 0-1.62 0v6.73a2.2 2.2 0 0 0 2.2 2.2h2.29v-5.95a1.06 1.06 0 0 0-.47-.89l-2.05-1.39v3.16a.17.17 0 0 1-.35 0V14.7m1.09-5.04a1.77 1.77 0 0 0-1.17.9v-.5l-1.18.28v3.24a1.21 1.21 0 0 1 1.25.22v-2.1a.93.93 0 0 1 .6-.97c.27-.06.5.03.5.51v3.05l1.24-.3v-3.22c0-.78-.3-1.33-1.24-1.1m18.13-4.62a.77.77 0 1 1 .77-.78.77.77 0 0 1-.77.78m0-1.45a.67.67 0 1 0 .67.67.67.67 0 0 0-.67-.67"/><path d="M30.77 3.82h.33a.22.22 0 0 1 .24.24c0 .12-.06.21-.16.23.1.01.14.06.15.2v.19a.1.1 0 0 0 .05.08h-.17a.16.16 0 0 1-.03-.09V4.5c0-.1-.04-.15-.14-.15h-.12v.4h-.15zm.27.41a.14.14 0 0 0 .15-.15c0-.1-.05-.15-.15-.15h-.12v.3z"/></g></svg></g></svg>
