<svg xmlns="http://www.w3.org/2000/svg" width="24" height="24" aria-hidden="true" focusable="false" viewBox="0 0 24 24"><title>Klarna</title><defs><clipPath id="pm-klarna-rounded"><rect width="24" height="24" rx="5"/></clipPath></defs><g clip-path="url(#pm-klarna-rounded)"><rect width="24" height="24" fill="#fff"/><rect width="22.5" height="22.5" x=".75" y=".75" fill="none" stroke="#E5E7EB" rx="4.25"/><svg x=".75" y="4.688" width="22.5" height="14.625" viewBox="0 0 40 26" preserveAspectRatio="xMidYMid meet"><path fill="#fff" d="M0 0h40v26H0z"/><g clip-path="url(#a)"><path fill="#FFA8CD" d="M2 13c0-3.05 0-4.58.75-5.66.3-.43.66-.8 1.09-1.1 1.08-.74 2.6-.74 5.66-.74h20.65c3.05 0 4.57 0 5.66.75.43.3.8.66 1.09 1.09.75 1.08.75 2.6.75 5.66 0 3.05 0 4.58-.75 5.66-.3.43-.66.8-1.09 1.1-1.09.74-2.61.74-5.66.74H9.5c-3.05 0-4.58 0-5.66-.75-.43-.3-.8-.66-1.1-1.09C2 17.58 2 16.06 2 13Z"/><path fill="#0B051D" d="M30.72 15.08c-.62 0-1.1-.51-1.1-1.14 0-.62.48-1.14 1.1-1.14.63 0 1.11.52 1.11 1.14 0 .63-.48 1.14-1.1 1.14Zm-.3 1.2c.52 0 1.2-.2 1.58-.99l.03.02c-.16.43-.16.69-.16.75v.1h1.33v-4.44h-1.33v.1c0 .07 0 .32.16.75l-.03.02a1.68 1.68 0 0 0-1.59-.99c-1.27 0-2.16 1.01-2.16 2.34 0 1.33.9 2.34 2.16 2.34Zm-4.5-4.68c-.6 0-1.08.21-1.46 1l-.04-.03c.17-.43.17-.68.17-.75v-.1h-1.34v4.45h1.37v-2.35c0-.61.36-1 .94-1 .57 0 .86.33.86 1v2.35h1.37v-2.83c0-1.01-.79-1.74-1.87-1.74Zm-4.65 1-.04-.03c.16-.43.16-.68.16-.75v-.1h-1.33v4.45h1.37l.01-2.14c0-.63.33-1 .87-1 .15 0 .26.01.4.05v-1.36c-.6-.13-1.14.1-1.44.87Zm-4.37 2.48c-.62 0-1.1-.51-1.1-1.14 0-.62.48-1.14 1.1-1.14.63 0 1.11.52 1.11 1.14 0 .63-.48 1.14-1.1 1.14Zm-.3 1.2c.52 0 1.2-.2 1.58-.99l.03.02c-.16.43-.16.69-.16.75v.1h1.33v-4.44h-1.33v.1c0 .07 0 .32.16.75l-.03.02a1.68 1.68 0 0 0-1.59-.99c-1.27 0-2.16 1.01-2.16 2.34 0 1.33.9 2.34 2.16 2.34Zm-4.09-.11h1.38V9.74H12.5v6.43Zm-1-6.43h-1.4c0 1.14-.7 2.17-1.78 2.9l-.42.3v-3.2H6.46v6.43H7.9v-3.2l2.4 3.2h1.78l-2.31-3.05a4.08 4.08 0 0 0 1.73-3.38Z"/></g><defs><clipPath id="a"><path fill="#fff" d="M0 0h35.66v15H0z" transform="translate(2 5.5)"/></clipPath></defs></svg></g></svg>
