<svg xmlns="http://www.w3.org/2000/svg" width="24" height="24" aria-hidden="true" focusable="false" viewBox="0 0 24 24"><title>PayPal</title><defs><clipPath id="paypal-rounded"><rect width="24" height="24" rx="5"/></clipPath><linearGradient id="paypal-bg" x1="0" x2="1" y1="0" y2="1"><stop offset="0" stop-color="#003087"/><stop offset="1" stop-color="#001C64"/></linearGradient></defs><g clip-path="url(#paypal-rounded)"><rect width="24" height="24" fill="url(#paypal-bg)"/><g><path fill="#009CDE" fill-rule="evenodd" d="M0 0h5.6c2.6 0 4.4 1.6 4.4 3.9 0 2.4-1.8 4-4.4 4H3.2V12H0V0zm3.2 2.3v4.5h2.2c.9 0 1.5-.9 1.5-2.2 0-1.3-.6-2.3-1.5-2.3H3.2z" opacity=".92" transform="matrix(1.1 0 0 1.1 6.5 5.4) translate(0.9 0.8)"/><path fill="#fff" fill-rule="evenodd" d="M0 0h5.6c2.6 0 4.4 1.6 4.4 3.9 0 2.4-1.8 4-4.4 4H3.2V12H0V0zm3.2 2.3v4.5h2.2c.9 0 1.5-.9 1.5-2.2 0-1.3-.6-2.3-1.5-2.3H3.2z" transform="matrix(1.1 0 0 1.1 6.5 5.4)"/></g></g></svg>
