<svg xmlns="http://www.w3.org/2000/svg" width="24" height="24" aria-hidden="true" focusable="false" viewBox="0 0 24 24"><title>Paysafe</title><defs><clipPath id="pm-paysafe-rounded"><rect width="24" height="24" rx="5"/></clipPath></defs><g clip-path="url(#pm-paysafe-rounded)"><rect width="24" height="24" fill="#fff"/><rect width="22.5" height="22.5" x=".75" y=".75" fill="none" stroke="#E5E7EB" rx="4.25"/><svg x="3.75" y="3.75" width="16.5" height="16.5" viewBox="0 0 24 24" preserveAspectRatio="xMidYMid meet"><path d="m23.905 12.233-7.672 7.673a.16.16 0 0 1-.115.047h-.048a.162.162 0 0 1-.162-.161v-7.787a.324.324 0 0 1-.094.228L8.188 19.86a.332.332 0 0 1-.466 0L.095 12.235a.332.332 0 0 1 0-.466L7.72 4.142a.334.334 0 0 1 .467 0l7.625 7.625c.06.06.094.143.094.23V4.208c0-.089.073-.162.162-.162h.048c.043 0 .084.018.115.048l7.672 7.672a.333.333 0 0 1 .002.467z"/></svg></g></svg>
