<svg xmlns="http://www.w3.org/2000/svg" width="24" height="24" aria-hidden="true" focusable="false" viewBox="0 0 24 24"><title>POLi</title><defs><clipPath id="pm-poli-rounded"><rect width="24" height="24" rx="5"/></clipPath></defs><g clip-path="url(#pm-poli-rounded)"><rect width="24" height="24" fill="#fff"/><rect width="22.5" height="22.5" x=".75" y=".75" fill="none" stroke="#E5E7EB" rx="4.25"/><svg x=".75" y="4.688" width="22.5" height="14.625" viewBox="0 0 40 26" preserveAspectRatio="xMidYMid meet"><path fill="#fff" d="M0 0h40v26H0z"/><path fill="#294499" d="M20.22 16.53a.02.02 0 0 0-.02-.01.02.02 0 0 0-.02.02.02.02 0 0 0 .03.01.02.02 0 0 0 0-.02zm.86-.22a.02.02 0 0 0 .02.03.02.02 0 0 0 .02-.02.02.02 0 0 0-.02-.02.02.02 0 0 0-.02.01zm-.91.56a.02.02 0 0 0-.02-.02c-.02 0-.03.01-.03.02 0 .02.01.03.03.03a.02.02 0 0 0 .02-.03zm1.96-2.58a.02.02 0 0 0-.02-.03c-.01 0-.02.01-.02.03a.02.02 0 0 0 .02.02l.02-.02zm-.34.68c0-.02 0-.02-.02-.02l-.01.02c0 .01 0 .02.02.02l.01-.02zm-.44 1.11a.02.02 0 0 0-.03-.02.02.02 0 0 0-.02.03.02.02 0 0 0 .03.02c.01 0 .02-.01.02-.03zm-.34 0a.02.02 0 0 0-.03-.02c-.01 0-.02.01-.02.03a.02.02 0 0 0 .03.02.02.02 0 0 0 .02-.03zm-1.03.88c-.02 0-.02.01-.02.03a.02.02 0 0 0 .02.02.02.02 0 1 0 0-.05zm.73-.9a.02.02 0 0 0-.03.03.02.02 0 0 0 .02.02c.02 0 .03 0 .03-.02a.02.02 0 0 0-.02-.03zm-1.16.3a.02.02 0 0 0-.05 0 .02.02 0 0 0 .05 0zM15 16.1l.01-.02-.02-.01-.01.02.02.01zm5.74.95c0-.02 0-.03-.02-.03s-.03 0-.03.02c0 .01 0 .02.02.03.02 0 .03 0 .03-.02zm.17-1.97c0-.02-.01-.03-.03-.03a.02.02 0 0 0-.02.03.02.02 0 0 0 .02.02.02.02 0 0 0 .03-.02zm-1.1 2a.02.02 0 0 0-.01.02.02.02 0 0 0 .02.02.02.02 0 0 0 .02-.03.02.02 0 0 0-.02-.02zm1.69-1.2a.02.02 0 0 0 .03-.01.02.02 0 0 0-.02-.03.02.02 0 0 0-.03.03.02.02 0 0 0 .02.02zm.28.4a.02.02 0 0 0 .02-.02.02.02 0 0 0-.01-.02.02.02 0 0 0-.02.02.02.02 0 0 0 .01.01zm-.03-1.65a.02.02 0 0 0-.02-.03.02.02 0 0 0-.03.02.1.1 0 0 0 0 .02.02.02 0 0 0 .03.01.02.02 0 0 0 .01 0v-.02zm-2.92 2.14-.01-.03a.07.07 0 0 0-.02 0l-.02.03a.02.02 0 0 0 .02.02.07.07 0 0 0 .02 0 .02.02 0 0 0 .01-.02zm1.07 0a.02.02 0 0 0-.02-.03.02.02 0 0 0-.02.02c0 .02 0 .02.02.03a.02.02 0 0 0 .02-.02zm1.44.02a.02.02 0 0 0 .02-.02.02.02 0 0 0-.02-.03.02.02 0 0 0-.03.03.02.02 0 0 0 .03.02zm.16-.56a.02.02 0 1 0 .03.02.02.02 0 0 0-.03-.02zm-6.1.08a.02.02 0 0 0-.01-.02c-.02 0-.03.01-.03.02a.02.02 0 0 0 .02.03c.01 0 .03-.01.03-.03zm4.41.53a.02.02 0 0 0 .03-.03.02.02 0 0 0-.02-.02c-.01 0-.02 0-.03.02a.02.02 0 0 0 .02.03zm1.57-.11a.02.02 0 0 0 .03-.02.02.02 0 0 0-.02-.02c-.01 0-.02 0-.02.02a.02.02 0 0 0 .01.02zm-1.31-.09c0-.01-.01-.02-.03-.02a.02.02 0 0 0-.02.03l.03.02c.01 0 .02-.01.02-.03zm-.34-.39c0-.01-.01-.02-.03-.02a.02.02 0 0 0-.02.03.02.02 0 0 0 .03.02.02.02 0 0 0 .02-.03zm-4.43 0a.02.02 0 0 0-.02-.02.02.02 0 1 0 0 .05.02.02 0 0 0 .02-.02zm6.77-1.2.01-.02a.05.05 0 0 0 0-.02.02.02 0 0 0-.01-.02.02.02 0 0 0-.03.02v.01c0 .02.01.02.03.02zm-.77 1.1c0-.02 0-.03-.02-.03s-.02 0-.03.02c0 .02 0 .03.02.03s.03 0 .03-.02zm-1.57.73c0-.02 0-.03-.02-.03-.01 0-.02 0-.03.02 0 .02 0 .03.02.03s.03 0 .03-.02zm1.57-1.97c0-.02 0-.03-.02-.03a.02.02 0 0 0-.03.03l.02.02a.02.02 0 0 0 .03-.02zm-.45.61a.02.02 0 0 0-.02-.02.02.02 0 0 0-.03.03l.03.02c.02 0 .02-.01.02-.03zm-1.4 2.09-.01-.03a.05.05 0 0 0-.02 0 .02.02 0 0 0-.02.02l.01.02a.06.06 0 0 0 .03 0l.01-.01zm.11-.07c0-.01-.01-.02-.03-.02a.02.02 0 0 0-.02.03l.03.02c.02 0 .02-.01.02-.03zm2.86-7.45-.01-.03a.02.02 0 0 0-.03.02.02.02 0 0 0 .02.03.02.02 0 0 0 .02-.02zm.03.08c-.01 0-.02 0-.02.02a.02.02 0 0 0 .03.03c.01 0 .02-.01.02-.03a.02.02 0 0 0-.03-.02zm-.76 5.01-.02-.01-.01.02a.02.02 0 0 0 .02.02l.01-.03zm-.11.17a.02.02 0 0 0-.02-.02c-.02 0-.03.02-.02.03a.02.02 0 0 0 .02.02.02.02 0 0 0 .02-.03zm-1.42-.2a.02.02 0 0 0 0-.04.02.02 0 0 0-.03.03.02.02 0 0 0 .03.02zm-.9 1.36c-.01 0-.02 0-.03.02 0 .02 0 .03.02.03s.03 0 .03-.02 0-.03-.02-.03zm-.15 1.26c0-.01-.01-.02-.03-.02a.02.02 0 0 0-.01.02c0 .02 0 .02.02.02a.02.02 0 0 0 .02-.02zm1.46-1.24a.02.02 0 0 0-.02-.02.02.02 0 1 0 .02.02zm-1.76.77a.02.02 0 0 0-.02.03.02.02 0 0 0 .01.01l.03-.01a.02.02 0 0 0-.02-.03zm2.26-1.6-.01-.03a.02.02 0 0 0-.02.02l.01.03c.01 0 .02 0 .02-.02zm-.61 1.56c0-.01-.01-.02-.03-.02-.01 0-.02.01-.02.03q0 .02.03.02c.01 0 .02-.01.02-.03zm1.28-2.18a.02.02 0 1 0-.03 0 .02.02 0 0 0 .02.02.02.02 0 0 0 .01-.02zm-.75-.15c.02 0 .03-.01.03-.03a.02.02 0 0 0-.02-.02l-.02.01a.03.03 0 0 0 0 .03.05.05 0 0 0 .01.01zm.56-4.09a.02.02 0 0 0 .03-.02c0-.02 0-.03-.02-.03s-.03 0-.03.03v.01a.05.05 0 0 0 .02.01zm.9 3.93s-.02.01-.02.03c0 .01 0 .02.02.02a.03.03 0 0 0 0-.05zm-3.28 1.83c0-.02 0-.03-.03-.03a.02.02 0 0 0-.02.03.02.02 0 0 0 .02.02.04.04 0 0 0 .02 0 .02.02 0 0 0 .01-.02zm1.1-.82a.02.02 0 0 0-.03.03.02.02 0 0 0 .03.02.02.02 0 0 0 .02-.03.02.02 0 0 0-.02-.02zm1.3.03a.02.02 0 0 0-.01-.03.02.02 0 0 0-.03.03.02.02 0 0 0 .03.02.02.02 0 0 0 .02-.02zm-.4-.76c-.02 0-.03.02-.03.03 0 .02.02.02.03.02.01 0 .02-.01.02-.03a.02.02 0 0 0-.03-.02zm.17-.28a.02.02 0 0 0-.03.02.07.07 0 0 0 0 .03.02.02 0 0 0 .01 0 .03.03 0 0 0 .04-.02.02.02 0 0 0-.02-.03zm-1.35 1.91a.03.03 0 0 0-.03.02.02.02 0 0 0 .01.03.06.06 0 0 0 .02 0q.02 0 .02-.03a.02.02 0 0 0-.02-.02zm-4.8-.14a.02.02 0 0 0-.04-.02l-.01.02a.04.04 0 0 0 .02.01.02.02 0 0 0 .02-.01zm6.57-2.03v.02l.03.01h.01a.05.05 0 0 0 0-.05.02.02 0 0 0-.02-.01.02.02 0 0 0-.02.01v.02zm.64.43a.02.02 0 0 0 .02-.01v-.04h-.02a.02.02 0 0 0-.02 0 .03.03 0 0 0 0 .04h.02zm-6.9 1.4a.07.07 0 0 0-.03.01.02.02 0 0 0 0 .03.03.03 0 0 0 .03.01.02.02 0 0 0 .02-.02.02.02 0 0 0-.01-.02h-.02zm6.45-.68-.01.01a.04.04 0 0 0 0 .03.02.02 0 0 0 .01.02.02.02 0 0 0 .02-.02.1.1 0 0 0 0-.02.02.02 0 0 0-.02-.02zm-.25-.93a.02.02 0 0 0-.03-.02.02.02 0 0 0-.02.02.06.06 0 0 0 0 .02.02.02 0 0 0 .02.02.02.02 0 0 0 .03-.02v-.02zm-2.14 2.54v-.02a.04.04 0 0 0-.03 0l-.01.02v.01a.1.1 0 0 0 .03 0l.01-.01zm1.46-1.52a.02.02 0 0 0-.02-.02c-.02 0-.03 0-.02.02a.02.02 0 0 0 .02.02c.01 0 .02 0 .02-.02zm-1.65.75a.02.02 0 0 0 .02-.02.02.02 0 0 0-.02-.02.02.02 0 0 0-.03.02.02.02 0 0 0 .03.02zm1.97-1.22-.02.01v.04a.03.03 0 0 0 .03 0v-.05h-.01zm-.6.02a.02.02 0 0 0-.02-.03c-.01 0-.02 0-.03.02v.02a.02.02 0 0 0 .04.02.02.02 0 0 0 0-.03zm.7-.2a.02.02 0 0 0-.02.02.09.09 0 0 0 0 .02.02.02 0 0 0 .02.02.02.02 0 0 0 .03-.01.07.07 0 0 0 0-.03.02.02 0 0 0-.02-.01zm-1.54 1.05a.02.02 0 0 0-.02-.03c-.02 0-.03 0-.03.02a.02.02 0 0 0 0 .03h.03l.02-.02zM22.33 15a.02.02 0 0 0-.02.02.14.14 0 0 0 0 .02.02.02 0 0 0 .02.02.02.02 0 0 0 .02-.01.17.17 0 0 0 0-.03c0-.01 0-.02-.02-.02zm-.8-.63v.05h.03a.11.11 0 0 0 0-.07.02.02 0 0 0 0-.01.02.02 0 0 0-.03.02v.01zm1.38-.07v-.01c0-.01-.02-.02-.03-.01a.03.03 0 0 0 0 .04.02.02 0 0 0 .03 0v-.02zm-1.28-.06v-.01a.02.02 0 0 0-.03-.02.02.02 0 0 0-.02.02v.02c0 .02.01.03.03.02.01 0 .02 0 .02-.03zm-.46 2.7-.01-.02c-.02 0-.02 0-.02.02l.01.02c.02 0 .03 0 .02-.02zm.97-2.81v.01a.02.02 0 0 0 .05 0 .06.06 0 0 0 0-.03.02.02 0 0 0-.03 0 .04.04 0 0 0-.01 0v.02zm-2.95 3.01c-.02 0-.02.01-.02.03a.02.02 0 0 0 .01.01.07.07 0 0 0 .03 0v-.02a.02.02 0 0 0 0-.01.08.08 0 0 0-.02 0zm2.4-6.2v.02a.02.02 0 0 0 .02.01.02.02 0 0 0 .02-.01.13.13 0 0 0 0-.04.02.02 0 0 0-.02-.01c-.02 0-.03 0-.03.03zm-1.95 6.3a.02.02 0 0 0 .02-.02.02.02 0 0 0-.02-.02c-.02 0-.02 0-.02.02a.02.02 0 0 0 .02.02zm3.06-6.53v-.01a.02.02 0 0 0-.03-.02.02.02 0 0 0-.02.02.14.14 0 0 0 0 .02c0 .01.01.02.03.02a.02.02 0 0 0 .01-.02zm-4.2 6.73-.02-.01a.06.06 0 0 0-.03 0 .02.02 0 0 0-.01.01l.01.02a.07.07 0 0 0 .03 0l.01-.02zm1.73 0a.02.02 0 0 0-.03-.02c-.01 0-.02 0-.02.02a.02.02 0 0 0 .02.03l.03-.02zm2.25-7.13v.02a.02.02 0 0 0 .03.02.02.02 0 0 0 .02-.02.1.1 0 0 0 0-.03.02.02 0 0 0-.03-.01.02.02 0 0 0-.02.02zm-3.29 7.44h.02a.03.03 0 0 0 .01-.02.02.02 0 0 0 0-.02.04.04 0 0 0-.04 0 .02.02 0 0 0-.01.01.03.03 0 0 0 0 .02h.02zm1.07-1.29c-.02 0-.03.01-.03.03a.02.02 0 0 0 .03.03.02.02 0 0 0 .02-.03.02.02 0 0 0-.02-.03zm-4.32.06h-.02a.02.02 0 0 0-.01.02v.03a.16.16 0 0 0 .05 0 .02.02 0 0 0 0-.02.02.02 0 0 0 0-.02h-.02zm5.64-1.66v.01c0 .01.01.02.03.02a.02.02 0 0 0 .02-.02.1.1 0 0 0 0-.02.02.02 0 0 0-.03-.02c-.01 0-.02.01-.02.03zm-6.19 1.8a.02.02 0 0 0-.02-.02c-.01 0-.02 0-.02.02a.02.02 0 0 0 .03.02.02.02 0 0 0 .01-.02zm.1.03h-.02a.02.02 0 0 0 0 .02v.02a.06.06 0 0 0 .03 0 .02.02 0 0 0 .01-.01.04.04 0 0 0 0-.02h-.02zm7.04-2a.07.07 0 0 0 0-.01.02.02 0 0 0-.02-.02l-.03.01a.13.13 0 0 0 0 .04l.02.01a.02.02 0 0 0 .02 0v-.02zm-1.01-.17a.09.09 0 0 0-.01-.02.02.02 0 0 0-.02-.01h-.01a.04.04 0 0 0 0 .05.02.02 0 0 0 .01 0 .03.03 0 0 0 .02 0 .06.06 0 0 0 0-.02zm-5.89 2.25a.02.02 0 0 0 .02.02.06.06 0 0 0 .01 0 .02.02 0 0 0 .02-.01.02.02 0 0 0-.02-.03.04.04 0 0 0-.01 0 .02.02 0 0 0-.02.02zm3.32-.05-.02-.02a.04.04 0 0 0-.04 0 .02.02 0 0 0 0 .02v.02a.04.04 0 0 0 .04 0l.02-.02zm3.19-1.8c0-.02-.01-.04-.03-.03-.02 0-.03 0-.03.03a.02.02 0 0 0 .03.02.02.02 0 0 0 .03-.02zm-3.09 1.73a.02.02 0 0 0-.02-.01H19a.03.03 0 0 0 0 .04.03.03 0 0 0 .03 0 .03.03 0 0 0 .02-.03zm-3.23.15s-.02 0-.02.02a.03.03 0 0 0 0 .02.04.04 0 0 0 .05 0 .02.02 0 0 0 0-.02.05.05 0 0 0-.01-.01.04.04 0 0 0-.02 0zm3.51.87a.02.02 0 0 0-.02-.02.07.07 0 0 0-.02 0 .02.02 0 0 0-.02.03.02.02 0 0 0 .03.01.14.14 0 0 0 .02 0 .02.02 0 0 0 .01-.02zm-.03-.59a.02.02 0 1 0 0 .05.02.02 0 0 0 .03-.03c0-.01-.01-.02-.03-.02zm3.26-6.68a.02.02 0 0 0-.03.02v.02a.03.03 0 0 0 .03.02.02.02 0 0 0 .02-.02.1.1 0 0 0 0-.02.02.02 0 0 0-.02-.02zm-3.9 6.99a.02.02 0 0 0-.02-.02.13.13 0 0 0-.01 0 .02.02 0 0 0-.02.02.02.02 0 0 0 .02.02.12.12 0 0 0 .01 0 .02.02 0 0 0 .02-.02zm3.26-3.3v.05h.03l.01-.01v-.06a.03.03 0 0 0-.02-.03s-.02 0-.02.02v.03zm-.73.9v.04a.02.02 0 0 0 .03.01.12.12 0 0 0 .02-.07l-.01-.01a.04.04 0 0 0-.02 0 .01.01 0 0 0-.01 0 .25.25 0 0 0 0 .04zm.22-4.37a.9.9 0 0 0 0 .05h.02a.02.02 0 0 0 .03-.02v-.06a.02.02 0 0 0-.03 0 .02.02 0 0 0-.02.01v.02zm.06.1a.46.46 0 0 0 0 .05l.02.01a.02.02 0 0 0 .03-.02v-.06l-.03-.01a.02.02 0 0 0-.02.02v.02zm-2.93 6.14h-.03l-.02.03a.02.02 0 0 0 .02.02.15.15 0 0 0 .07 0 .02.02 0 0 0 0-.03.02.02 0 0 0 0-.01.33.33 0 0 0-.04 0zm.9-.44h-.03l-.01.02a.02.02 0 0 0 .01.01.16.16 0 0 0 .06 0 .01.01 0 0 0 .01-.02.25.25 0 0 0-.04-.01zm.18-.08a.15.15 0 0 0 .03 0v-.03a.07.07 0 0 0-.03 0c-.02 0-.04 0-.05.02l.05.01zm1.12-2.19a.38.38 0 0 0 0 .05h.02a.02.02 0 0 0 .02 0 .19.19 0 0 0 0-.07.02.02 0 0 0-.04 0v.02zm-1.96 2.37h-.04a.02.02 0 0 0-.02.03.02.02 0 0 0 .01.02.24.24 0 0 0 .08 0 .02.02 0 0 0 .01-.02c0-.02 0-.03-.02-.03h-.02zm-2.64.1h.04a.02.02 0 0 0 0-.04.21.21 0 0 0-.09 0 .02.02 0 0 0-.01.02l.01.02h.05zm2.52.01a.39.39 0 0 0 .04 0l.01-.02a.02.02 0 0 0-.02-.03.27.27 0 0 0-.07 0l-.02.03a.02.02 0 0 0 .02.02h.04zm3.03-2.51v-.04a.02.02 0 0 0-.03-.02.02.02 0 0 0-.02.02v.06a.02.02 0 0 0 .02.02.03.03 0 0 0 .02-.01.14.14 0 0 0 0-.03zm1.29 0-.02-.05h-.01a.13.13 0 0 0-.01.08h.01a.02.02 0 0 0 .02 0v-.03zm-.79.67-.01-.05h-.03a.2.2 0 0 0 0 .08.02.02 0 0 0 .02.01.03.03 0 0 0 .01-.01.12.12 0 0 0 .01-.03zm.4-4.2a.1.1 0 0 0 0 .02l.02.01a.02.02 0 0 0 .02-.01v-.07c0-.01 0-.02-.02-.02a.02.02 0 0 0-.02.02v.04zm-4.21 6.15h.04a.02.02 0 0 0 .01-.01.03.03 0 0 0 0-.04.2.2 0 0 0-.1 0v.02a.02.02 0 0 0 0 .03h.05zm-.17.06a.37.37 0 0 0 .04 0l.02-.02a.02.02 0 0 0-.02-.03h-.08a.02.02 0 0 0-.02.03l.01.01h.05zm-.01.22h.05l.01-.03a.02.02 0 0 0-.01-.01h-.08l-.02.02a.02.02 0 0 0 .02.02h.03zm3.44-5.96v.05l.02.02a.02.02 0 0 0 .03-.02.2.2 0 0 0 0-.08l-.01-.01h-.04v.04zm-3.27 6.19h.05a.02.02 0 0 0 .02-.03.03.03 0 0 0-.03-.02.24.24 0 0 0-.07 0 .02.02 0 0 0-.02.02.02.02 0 0 0 .01.02h.04zm.3-.4h.02a.02.02 0 0 0 .02-.02.02.02 0 0 0-.02-.03.2.2 0 0 0-.07.01v.03h.04zm-.47.45h.05l.02-.03a.02.02 0 0 0-.02-.02.23.23 0 0 0-.09 0l-.01.02a.02.02 0 0 0 .02.03h.03zm.74-.04h-.04v.02a.02.02 0 0 0 0 .01.16.16 0 0 0 .08 0 .02.02 0 0 0 0-.02.26.26 0 0 0-.04-.01zm-.4-.07h.05l.01-.02a.02.02 0 0 0-.02-.03h-.07a.02.02 0 0 0-.02.01l.01.03.05.01zm3.26-3.42v-.04a.02.02 0 0 0-.02-.02c-.01 0-.03 0-.03.02v.07c0 .02.01.02.02.02h.02v-.05zm-.9.12v-.06a.02.02 0 0 0-.02 0h-.02a.16.16 0 0 0 0 .1h.03a.3.3 0 0 0 0-.04zm.84.06a.27.27 0 0 0 0-.05l-.02-.01a.02.02 0 0 0-.02 0 .2.2 0 0 0 0 .09.02.02 0 0 0 0 .01h.04v-.04zm.5 0v-.05h-.02l-.02.07a.04.04 0 0 0 0 .01.02.02 0 0 0 .04 0v-.02zm-2.63 3.58h.04a.02.02 0 0 0 .02-.03.02.02 0 0 0-.03-.02.17.17 0 0 0-.06.01l-.01.02v.01h.04zm-1.11-1.18a.7.7 0 0 0-.05 0l-.01.02a.02.02 0 0 0 .02.03h.08a.02.02 0 0 0 0-.03.02.02 0 0 0 0-.01.29.29 0 0 0-.04-.01zm2.17-.19a.02.02 0 0 0-.02-.03.02.02 0 0 0-.02.01c0 .02-.01.04-.04.04-.02 0-.02.02-.02.04a.02.02 0 0 0 .02.01h.02c0-.03.02-.05.05-.05v-.02zm1.98-1.88a.22.22 0 0 0 0 .03.02.02 0 0 0 .02.02.02.02 0 0 0 .02-.01.18.18 0 0 0 0-.1.02.02 0 0 0-.04 0 .1.1 0 0 0 0 .06zm-4.67 3.08h.05a.02.02 0 0 0 .02-.03.03.03 0 0 0-.02-.02.31.31 0 0 0-.09 0 .02.02 0 0 0 0 .05h.04zm4.33-3.83v.06a.03.03 0 0 0 .02 0h.02a.66.66 0 0 0 0-.07.06.06 0 0 0 0-.03.02.02 0 0 0-.02 0 .02.02 0 0 0-.01 0 .24.24 0 0 0 0 .04zm-.57-2.31v-.07l-.03-.01a.02.02 0 0 0-.02.01.24.24 0 0 0 .01.12.02.02 0 0 0 .02.02s.02 0 .02-.02v-.05zm.68 1.99v-.04l-.02-.01a.02.02 0 0 0-.03.01.31.31 0 0 0 0 .13h.02a.01.01 0 0 0 .01 0 .18.18 0 0 0 .02-.1zm-.12.55v-.03l-.02-.01h-.02v.09a.04.04 0 0 0 .03.01.03.03 0 0 0 .01-.02.29.29 0 0 0 0-.04zm-4.01 3.77h.02a.03.03 0 0 0 .01-.02.02.02 0 0 0-.02-.03l-.08.02v.01l.07.02zm3.15-2.02c-.01 0-.02 0-.03.02a.03.03 0 0 1-.03.04.02.02 0 0 0-.02 0 .03.03 0 0 0 0 .03.02.02 0 0 0 .01.02.03.03 0 0 0 .03-.01.03.03 0 0 0 0-.01.03.03 0 0 1 .04-.04.02.02 0 0 0 .01 0 .03.03 0 0 0 0-.04h-.01zm-3.07 1.46h.05l.01-.03c0-.01 0-.02-.02-.02h-.07s-.02 0-.01.02a.02.02 0 0 0 .01.03h.03zm2.59-3.26v-.05h-.02a.02.02 0 0 0-.03.01v.08a.02.02 0 0 0 0 .01.05.05 0 0 0 .02.01.02.02 0 0 0 .02 0l.01-.06zm2.08-.02v.06a.02.02 0 0 0 .03 0h.01a.23.23 0 0 0 0-.13.02.02 0 0 0-.01 0 .01.01 0 0 0-.02 0l-.01.07zm-5.64 3.78h.06l.02-.02-.02-.03h-.13a.03.03 0 0 0-.01.02.02.02 0 0 0 .01.03h.07zm4-4.25v-.1a.06.06 0 0 0 0-.01l-.02-.01a.01.01 0 0 0-.01 0v.02a1 1 0 0 0-.01.18v.01l.02.01a.03.03 0 0 0 .02-.01.05.05 0 0 0 0-.02v-.07zm.07.62a.24.24 0 0 0 0 .08.02.02 0 0 0 .02 0 .02.02 0 0 0 .01 0v-.01a.32.32 0 0 0 .02-.13.02.02 0 0 0-.03-.02.03.03 0 0 0-.02.02v.06zm1.56.08v-.03l-.02-.01a.03.03 0 0 0-.03.02.2.2 0 0 0 .01.08h.02a.02.02 0 0 0 .01 0l.01-.06zm-1.06-.02v.06a.04.04 0 0 0 0 .02.02.02 0 0 0 .03 0 .37.37 0 0 0 0-.14.02.02 0 0 0-.01-.01.02.02 0 0 0-.02.01v.06zm-3.96 2.95h.07l.02-.03-.02-.02h-.13a.03.03 0 0 0-.02.03.02.02 0 0 0 .01.02h.07zm4.69-2.74v.03a.02.02 0 0 0 .02.02c.02 0 .03 0 .03-.02v-.08l-.02-.02-.03.02v.05zm-6.65 2.8.07-.01v-.01a.01.01 0 0 0 0-.02h-.06a.19.19 0 0 0-.08 0 .02.02 0 0 0 0 .02l.07.02zm.04.23h-.05a.02.02 0 0 0-.02.02.02.02 0 0 0 .01.02.54.54 0 0 0 .14 0 .02.02 0 0 0 .01-.01.02.02 0 0 0-.02-.02l-.07-.01zm5.26-3.62v-.07s-.02-.02-.03-.01a.02.02 0 0 0-.01 0 .64.64 0 0 0 0 .14.02.02 0 0 0 .02.02.02.02 0 0 0 .02-.02v-.06zm.22.1v-.06l-.02-.02a.02.02 0 0 0-.03.02v.13a.02.02 0 0 0 .05 0v-.07zm1.24.29-.01-.07a.02.02 0 0 0-.02-.01h-.01a.37.37 0 0 0 0 .15h.03v-.07zm.06-.22v-.07l-.02-.01a.02.02 0 0 0-.03.01v.13a.03.03 0 0 0 .02.02l.02-.01v-.07zm.27-.29v-.07l-.02-.01a.02.02 0 0 0-.02.01.56.56 0 0 0 0 .15.03.03 0 0 0 .02.01.02.02 0 0 0 .02-.02v-.07zm-2.18.1v.08a.02.02 0 0 0 .03.02.02.02 0 0 0 .02-.02v-.14a.02.02 0 0 0-.03-.01l-.01.01a.52.52 0 0 0 0 .06zm-2.95 3.58.07-.01v-.03a.2.2 0 0 0-.14 0 .02.02 0 0 0 0 .02v.01h.07zm4.9-5.54v-.06l-.02-.01a.02.02 0 0 0-.02.02v.13a.2.2 0 0 0 .01.05h.03a.43.43 0 0 0 0-.13zm-5.12 5.54h-.07l-.02.02a.03.03 0 0 0 .03.03.37.37 0 0 0 .13 0l.01-.03a.02.02 0 0 0-.01-.01h-.07zm4.8-3.64v.09l.02.01a.02.02 0 0 0 .02-.01 1.12 1.12 0 0 0 0-.19.02.02 0 0 0-.02-.01h-.01l-.01.1zm-.56.25a.46.46 0 0 0 0 .12h.02a.02.02 0 0 0 .02 0 .9.9 0 0 0 0-.19.02.02 0 0 0-.01-.01h-.02l-.01.08zm-4.25 3.22h.06a.15.15 0 0 0 .03 0 .02.02 0 0 0 0-.03v-.01a.04.04 0 0 0-.02 0 1.22 1.22 0 0 0-.17 0 .04.04 0 0 0-.01 0v.03a.08.08 0 0 0 .02 0h.09zm3.85-3.54v-.1h-.04a.83.83 0 0 0 0 .2l.02.01a.02.02 0 0 0 .01-.01l.01-.1zm-3.87 4.05a.18.18 0 0 1 .02 0 .14.14 0 0 0 .06-.02l.01-.01v-.01a.17.17 0 0 0-.05-.02.4.4 0 0 0-.14.02v.02a.28.28 0 0 0 .1.02zm-1.32-.73h.08a.02.02 0 0 0 0-.04v-.01a.4.4 0 0 0-.05 0h-.1a.02.02 0 0 0-.01.02l.01.02h.07zm1.04.5h.1l.01-.03a.02.02 0 0 0-.01-.02 1.16 1.16 0 0 0-.2 0 .02.02 0 0 0-.01.03l.01.01.1.01zm5.39-3.76v.08a.06.06 0 0 0 0 .02.02.02 0 0 0 .02.01.02.02 0 0 0 .02 0v-.2a.04.04 0 0 0 0-.02.02.02 0 0 0-.01 0h-.03v.1zm-1.02.1v-.08a.02.02 0 0 0-.01-.01l-.02.01a.4.4 0 0 0-.01.19h.01a.02.02 0 0 0 .02 0 .25.25 0 0 0 .02-.12zm.01-.3v.11a.07.07 0 0 0 0 .02.02.02 0 0 0 .02.01l.03-.01v-.25l-.03-.01a.02.02 0 0 0-.01.01l-.01.12zm-.79 0v-.1a.17.17 0 0 0 0-.02l-.03-.02a.02.02 0 0 0-.01.02.17.17 0 0 0 0 .03l-.01.2v.02l.02.02.03-.02v-.12zm-3.57 3.45h.1a.17.17 0 0 0 .03 0 .02.02 0 0 0 0-.05h-.25a.02.02 0 0 0-.01.02v.03a.18.18 0 0 0 .04 0h.09zm5.15-3.62v.1a.26.26 0 0 0 0 .03.02.02 0 0 0 .02.02.03.03 0 0 0 .02-.02v-.24a.1.1 0 0 0 0-.03.02.02 0 0 0-.03 0 .03.03 0 0 0 0 .01l-.01.12zm-6.27 3.9h.08l.02-.02a.03.03 0 0 0-.02-.02h-.13a.18.18 0 0 0-.07.01v.02a.52.52 0 0 0 .12.02zm5.97-6.97-.02-.07a.04.04 0 0 1-.03-.04c0-.03-.01-.03-.03-.04a.02.02 0 0 1-.02-.02.07.07 0 0 0 0-.02.02.02 0 0 0-.02-.01.02.02 0 0 0-.02 0v.05c.03 0 .04.02.04.04a.27.27 0 0 0 0 .04c0 .02.01.02.03.03.02 0 .03 0 .03.03a.05.05 0 0 0 0 .02.02.02 0 0 0 .02 0 .02.02 0 0 0 .02 0v-.01zm-.66 2.94v-.12a.4.4 0 0 0 0-.04l-.03-.02a.03.03 0 0 0-.02.02v.29a.08.08 0 0 0 0 .02h.02a.03.03 0 0 0 .02-.01v-.15zm.4.53v.1a.06.06 0 0 0 0 .02.02.02 0 0 0 .01 0h.02a.14.14 0 0 0 .02-.06v-.17a.06.06 0 0 0 0-.02.02.02 0 0 0-.04-.01.03.03 0 0 0-.01.02v.12zm.05-.39v.14a.2.2 0 0 0 0 .04.02.02 0 0 0 .02.01h.02a.21.21 0 0 0 0-.05l.01-.25v-.07a.03.03 0 0 0-.03-.01h-.01a.3.3 0 0 0 0 .05v.14zm.84-1.05v-.16a.27.27 0 0 0-.01-.04l-.02-.01a.02.02 0 0 0-.02.01.1.1 0 0 0 0 .02v.36a.18.18 0 0 0 0 .03l.02.01h.02a.3.3 0 0 0 0-.05V12zm-.73.45v-.17a.1.1 0 0 0-.01-.03.02.02 0 0 0-.01-.01.02.02 0 0 0-.03.02.68.68 0 0 0 0 .06v.34l.02.01a.02.02 0 0 0 .02 0v-.22zm.68.5v.22l.02.01.02-.01a.2.2 0 0 0 0-.04v-.38a.02.02 0 0 0-.04 0v.21zm-5.5 4h.15l.02-.04a.03.03 0 0 0-.02-.02h-.31a.02.02 0 0 0-.02.02.03.03 0 0 0 .03.04zm3.3-2.68a.46.46 0 0 0 0-.05.02.02 0 0 0-.02-.01h-.02v.04a.03.03 0 0 1-.03.02h-.02c0 .03-.02.05-.01.07v.05a.03.03 0 0 1-.04.04c-.01 0-.02 0-.02.03a.1.1 0 0 0 0 .02h.04a.44.44 0 0 0 .06-.06.06.06 0 0 0 0-.03c0-.02 0-.04.03-.05.02-.03.04-.05.03-.07zm1.97-1.92v.26a.03.03 0 0 0 .02.02l.03-.02v-.46a.7.7 0 0 0 0-.07c0-.01-.01-.02-.03-.02-.01 0-.02 0-.02.03v.25zm.45.56v.18a.13.13 0 0 0 0 .03l.02.01a.02.02 0 0 0 .03 0 .06.06 0 0 0 0-.02v-.34a.27.27 0 0 0 0-.06l-.03-.02a.03.03 0 0 0-.01.02.67.67 0 0 0 0 .07v.13zm-2.59 1.65v-.01l-.02-.01h-.02a.26.26 0 0 0 0 .04.02.02 0 0 1-.03.02c-.02 0-.03 0-.03.03v.05a.02.02 0 0 1-.03.02c-.02 0-.03.01-.03.03a.04.04 0 0 1-.03.04.02.02 0 0 0-.02.02.07.07 0 0 1-.03.04l-.03.06a.02.02 0 0 0 0 .01.02.02 0 0 0 .02.02.02.02 0 0 0 .02 0v-.02a.03.03 0 0 1 .04-.03c.02 0 .02-.01.03-.03a.04.04 0 0 1 .03-.04l.01-.02.01-.06a.03.03 0 0 1 .03-.02.03.03 0 0 0 .03-.02.04.04 0 0 1 .03-.04l.02-.08zm2.3-3.3v-.11a.33.33 0 0 1-.01-.05c0-.02-.01-.02-.02-.03a.03.03 0 0 1-.02-.02v-.04a.02.02 0 0 0-.04-.01v.01a.83.83 0 0 0 .01.2h.01a.03.03 0 0 1 .02.03.2.2 0 0 1 0 .04.16.16 0 0 0 .02.08l.01.01.02-.01a.33.33 0 0 0 0-.1zm-1.56 2.46v-.07l-.03-.01h-.02v.07l-.01.07a.02.02 0 0 1-.02.02.04.04 0 0 0-.03.05v.04a.04.04 0 0 1-.03.04l-.01.02a.27.27 0 0 0-.01.16l.01.01h.02a.52.52 0 0 0 .01-.06c0-.02 0-.04.03-.04l.01-.02a.39.39 0 0 0 .02-.08.03.03 0 0 1 .02-.03.04.04 0 0 0 0-.01.46.46 0 0 0 .04-.16zm-3.48 2.89h.08a.04.04 0 0 0 .04-.03.03.03 0 0 1 .02-.01.17.17 0 0 1 .07-.02h.1a.02.02 0 0 0 .02-.02.03.03 0 0 1 .04-.03.6.6 0 0 0 .04 0h.05a.04.04 0 0 0 .04-.04.02.02 0 0 1 .02-.02h.08s.02-.02.01-.03a.02.02 0 0 0-.02-.02h-.1a.04.04 0 0 0-.04.03.02.02 0 0 1-.02.02.57.57 0 0 0-.13.01.03.03 0 0 0-.02.03.03.03 0 0 1-.03.02h-.12a.03.03 0 0 0-.02.02.04.04 0 0 1-.03.03.49.49 0 0 1-.1.01h-.08a.02.02 0 0 0-.02.02c0 .02.01.03.02.03h.1zm4.1-4.1v.46a.06.06 0 0 0 0 .02.02.02 0 0 0 .02 0 .02.02 0 0 0 .02 0 .1.1 0 0 0 0-.02.9.9 0 0 0 0-.07v-.86a.2.2 0 0 0 0-.03l-.01-.02c-.01 0-.03 0-.03.02a.2.2 0 0 0 0 .03v.46zm-5.16 4.72h.33a.22.22 0 0 0 .08-.01l.01-.01a.02.02 0 0 0 0-.01.01.01 0 0 0 0-.01.26.26 0 0 0-.08-.02h-.65a.2.2 0 0 0-.08.02.02.02 0 0 0 0 .02.02.02 0 0 0 .01.01 1 1 0 0 0 .09 0h.29zm5.66-4.86v.43a.13.13 0 0 0 0 .03.02.02 0 0 0 .02.01.02.02 0 0 0 .02 0v-.01a.53.53 0 0 0 .01-.07v-.85a.04.04 0 0 0 0-.02.03.03 0 0 0-.03 0h-.02a.9.9 0 0 0 0 .08v.39zm-3.74 4.74h.07a.03.03 0 0 0 .02-.02v-.02a.02.02 0 0 1 .02 0 .41.41 0 0 0 .11-.03.04.04 0 0 0 .03-.02.03.03 0 0 1 .03-.02h.06a.02.02 0 0 0 .02-.02.04.04 0 0 1 .04-.03.28.28 0 0 0 .04 0 .04.04 0 0 0 .04-.04.03.03 0 0 1 .02-.02h.02a.02.02 0 0 0 .02-.02.03.03 0 0 1 .03-.03.34.34 0 0 0 .09-.01l.03-.03a.03.03 0 0 1 .02-.02.13.13 0 0 0 .08-.04.13.13 0 0 1 .05-.03l.02-.01a.04.04 0 0 1 .04-.03c.02 0 .03-.02.03-.04l.01-.02c.03 0 .06 0 .06-.03l.02-.01a.43.43 0 0 1 .06-.03.02.02 0 0 0 .02 0 .03.03 0 0 1 .03-.04.2.2 0 0 0 .05-.01.03.03 0 0 0 .02-.02.04.04 0 0 1 .04-.03.03.03 0 0 0 .02-.03.03.03 0 0 1 .03-.03.02.02 0 0 0 .03-.02.03.03 0 0 1 .04-.03.03.03 0 0 0 .02-.02c0-.02.01-.03.02-.03a.04.04 0 0 0 .05-.04.02.02 0 0 1 .01-.01l.06-.02a.02.02 0 0 0 .02-.02c0-.02.01-.03.04-.03a.02.02 0 0 0 .02-.02.03.03 0 0 1 .03-.04c.02 0 .03-.01.03-.03a.02.02 0 0 1 .02-.02c.03 0 .03-.01.04-.04 0-.01.01-.02.03-.02a.02.02 0 0 0 .02-.02.03.03 0 0 1 .03-.03c.02 0 .03-.01.03-.03 0-.02.01-.03.03-.03a.02.02 0 0 0 .02-.02.04.04 0 0 1 .04-.04.02.02 0 0 0 .02-.02c0-.03.01-.03.04-.04a.02.02 0 0 0 .01-.01v-.01a.03.03 0 0 1 .04-.03l.01-.02a.25.25 0 0 1 .03-.06c0-.02.01-.02.02-.03a.03.03 0 0 0 .02-.03.02.02 0 0 0-.02-.02.03.03 0 0 0-.03 0 .06.06 0 0 0 0 .03.03.03 0 0 1-.03.02c-.02 0-.03.02-.03.03a.03.03 0 0 1-.03.03c-.02 0-.02.01-.03.04a.02.02 0 0 1-.02.01.03.03 0 0 0-.03.03.04.04 0 0 1-.03.04.02.02 0 0 0-.02.02c0 .02-.02.03-.04.03a.02.02 0 0 0-.02.02c0 .02-.01.03-.03.03-.02 0-.03.01-.03.03a.03.03 0 0 1-.03.03.02.02 0 0 0-.02.03.03.03 0 0 1-.03.03.03.03 0 0 0-.03.02c0 .02-.01.03-.03.03a.02.02 0 0 0-.03.02.03.03 0 0 1-.03.04.03.03 0 0 0-.03.03.02.02 0 0 1-.02.02.03.03 0 0 0-.04.03c0 .01 0 .02-.02.03l-.06.01a.02.02 0 0 0-.02.02.03.03 0 0 1-.02.03h-.02c-.04.01-.05.06-.1.07a.02.02 0 0 0 0 .01.07.07 0 0 1-.06.04.02.02 0 0 0-.02.02.03.03 0 0 1-.03.02c-.02 0-.03.01-.03.04 0 .02-.02.02-.04.02a.03.03 0 0 0-.02.03.03.03 0 0 1-.02.02l-.07.01a.02.02 0 0 0-.02.03.03.03 0 0 1-.03.02l-.04.01a.04.04 0 0 0-.04.03.03.03 0 0 1-.03.02.03.03 0 0 0-.03.03.02.02 0 0 1-.02.02l-.06.01a.13.13 0 0 0-.06.03.06.06 0 0 1-.05.03h-.01a.04.04 0 0 0-.02.02c0 .02-.02.03-.04.03a.03.03 0 0 0-.03.03.02.02 0 0 1-.02.02h-.07a.02.02 0 0 0-.01.02.04.04 0 0 1-.04.03l-.06.01a.02.02 0 0 0-.02.02.03.03 0 0 1-.02.03.63.63 0 0 1-.1.01.04.04 0 0 0-.04.03.03.03 0 0 1-.02.02.24.24 0 0 0-.08.01l-.01.02a.02.02 0 0 0 .01.02h.06zm2.39-2.86h-.02c-.01 0-.02 0-.03.02v.03l-.02.02c-.03.02-.03.04-.04.07v.05a.03.03 0 0 1-.03.03.03.03 0 0 0-.02.04.04.04 0 0 1-.03.04.03.03 0 0 0-.02.01c0 .03-.01.05-.04.05v.01a.41.41 0 0 0-.02.06.05.05 0 0 1-.03.04.03.03 0 0 0-.02.02.16.16 0 0 0-.02.06.02.02 0 0 1-.02.02.03.03 0 0 0-.02.03l-.01.04a.04.04 0 0 1-.04.04.03.03 0 0 0-.02.02.03.03 0 0 1-.02.04.02.02 0 0 0-.03.02.04.04 0 0 1-.03.04.03.03 0 0 0-.02.02l-.01.06a.02.02 0 0 1-.02.02c-.02 0-.03.01-.04.03a.03.03 0 0 1-.02.03.02.02 0 0 0-.02.02c0 .03-.02.04-.04.04a.02.02 0 0 0-.02.02c0 .02-.01.04-.04.04a.02.02 0 0 0-.02.02.04.04 0 0 1-.03.03.02.02 0 0 0-.02.03s0 .02-.02.03a.05.05 0 0 0-.04.04l-.03.02a.02.02 0 0 0-.03.02.04.04 0 0 1-.03.03s-.02 0-.02.02a.04.04 0 0 1-.04.04l-.02.02a.04.04 0 0 1-.03.03.02.02 0 0 0-.02.03c0 .02-.02.03-.04.03a.03.03 0 0 0-.02.02c0 .02-.01.03-.03.03a.03.03 0 0 0-.03.03.03.03 0 0 1-.03.03c-.02 0-.03.01-.03.03a.02.02 0 0 1-.01.02l-.05.01c-.03.01-.03.03-.05.04a.1.1 0 0 1-.03.02.03.03 0 0 0-.02.02c0 .02-.02.02-.03.03a.03.03 0 0 0-.03.02c0 .03-.02.03-.04.03l-.02.02a.04.04 0 0 1-.03.03l-.06.01a.02.02 0 0 0-.02.02v.01a.02.02 0 0 1-.02.02.11.11 0 0 0-.09.05l-.03.02a.02.02 0 0 0-.02.01.04.04 0 0 1-.04.04.03.03 0 0 0-.03.03.03.03 0 0 1-.02.02h-.05a.1.1 0 0 0-.1.05h-.02a.26.26 0 0 0-.07.04c0 .03-.03.03-.05.03v.01h-.01l.01.04h.06a.04.04 0 0 0 .04-.04.02.02 0 0 1 .02-.02H19l.07-.01a.02.02 0 0 0 .02-.02.04.04 0 0 1 .03-.02c.03-.01.07-.01.08-.05l.03-.01c.02 0 .03-.01.03-.03a.03.03 0 0 1 .03-.03.04.04 0 0 0 .04-.03.02.02 0 0 1 .01-.01l.07-.02a.02.02 0 0 0 .02-.01v-.02a.02.02 0 0 1 .02-.02l.07-.01a.02.02 0 0 0 .02-.02.03.03 0 0 1 .03-.02c.02 0 .03-.02.03-.04a.02.02 0 0 1 .02-.02.16.16 0 0 0 .06-.02.02.02 0 0 0 .01-.01.05.05 0 0 1 .05-.04c.02 0 .02 0 .03-.02a.03.03 0 0 1 .02-.02c.02 0 .03-.01.03-.03 0-.02.02-.03.04-.03a.02.02 0 0 0 .02-.02c0-.03.01-.03.03-.04a.03.03 0 0 0 .03-.02.03.03 0 0 1 .03-.03.03.03 0 0 0 .03-.02.04.04 0 0 1 .04-.04.31.31 0 0 0 .04-.02.02.02 0 0 0 .02-.01.04.04 0 0 1 .02-.03.04.04 0 0 0 .03-.03.46.46 0 0 0 .02-.05c0-.01 0-.02.02-.02s.03-.01.03-.04c0-.01.01-.02.03-.02a.03.03 0 0 0 .03-.03.03.03 0 0 1 .03-.03.08.08 0 0 0 .06-.04.11.11 0 0 1 .03-.04.05.05 0 0 0 .02-.02.16.16 0 0 0 .03-.05.03.03 0 0 1 0-.01.05.05 0 0 0 .05-.05l.02-.02h.02a.1.1 0 0 1 .05-.07v-.01a.18.18 0 0 0 .02-.06.02.02 0 0 1 .02-.02c.03 0 .04-.02.04-.04s0-.02.02-.03a.03.03 0 0 0 .02-.01c0-.03.01-.05.04-.06l.01-.01a.18.18 0 0 0 .02-.05.36.36 0 0 1 0-.06l.02-.01a.04.04 0 0 0 .04-.05c0-.01.01-.02.03-.02a.02.02 0 0 0 .01-.02c0-.03.01-.05.04-.06l.01-.01a.16.16 0 0 0 .02-.06.03.03 0 0 1 .01-.03.12.12 0 0 0 .04-.08.04.04 0 0 1 .02-.03.04.04 0 0 0 .02-.02.22.22 0 0 0 .02-.08v-.06c.06 0 .05 0 .06-.05a.14.14 0 0 0 0-.04.03.03 0 0 0-.02-.02.02.02 0 0 0-.03.02l-.01.1zm0 .51h.02a.03.03 0 0 0 .04-.03.03.03 0 0 1 .02-.03c.01 0 .02 0 .02-.02a.08.08 0 0 1 .02-.05c.05-.05.04-.04.05-.11v-.02a.02.02 0 0 1 .02-.02.03.03 0 0 0 .03-.03.7.7 0 0 1 0-.07.03.03 0 0 1 .02-.02.03.03 0 0 0 .04-.03.4.4 0 0 1 0-.06.03.03 0 0 1 .02-.03.03.03 0 0 0 .03-.02v-.11a.03.03 0 0 1 .03-.03c.01 0 .02 0 .02-.02a.54.54 0 0 0 0-.13.02.02 0 0 0-.01-.02.02.02 0 0 0-.02.02l-.01.03a.03.03 0 0 1-.02.03l-.02.01a.38.38 0 0 0-.01.07.2.2 0 0 1 0 .06.04.04 0 0 1-.02.02.14.14 0 0 0-.04.1.04.04 0 0 1-.02.02l-.02.02a.2.2 0 0 0-.02.1c0 .02 0 .04-.03.04a.02.02 0 0 0-.01.02l-.02.06a.02.02 0 0 1-.02.02l-.03.03c0 .03 0 .04-.03.05v.01a.33.33 0 0 0-.02.06v.09c-.05-.01-.06 0-.06.03a.4.4 0 0 0 0 .05.02.02 0 0 0 .02.02s.02 0 .02-.02a.26.26 0 0 0 0-.09zm-.79 2.3a.25.25 0 0 0-.12.02l-.02.01a.05.05 0 0 1-.03.04s-.02 0-.03.02a.06.06 0 0 1-.05.03.03.03 0 0 0-.02.02.03.03 0 0 1-.03.03c-.02 0-.03.01-.03.03a.03.03 0 0 1-.03.02.41.41 0 0 1-.05.01c-.02 0-.03.01-.03.03a.02.02 0 0 1-.02.02c-.02 0-.04 0-.04.03a.04.04 0 0 1-.04.02l-.05.02a.02.02 0 0 0-.01.01.02.02 0 0 0 .01.03h.06a.03.03 0 0 0 .03-.03.02.02 0 0 1 .02-.02h.04c.02-.01.05-.01.06-.05l.02-.01a.03.03 0 0 0 .03-.03c0-.02.01-.02.03-.02l.04-.01a.03.03 0 0 0 .04-.03.02.02 0 0 1 .01-.02h.04a.09.09 0 0 0 .03-.02l.03-.03a.1.1 0 0 1 .03-.02c.01 0 .02 0 .02-.02a.04.04 0 0 1 .04-.03c.02 0 .02-.02.02-.04v-.01h.04l.02-.03a.02.02 0 0 0-.02-.02.03.03 0 0 0-.04.03.14.14 0 0 0 0 .02zm2.14-2.92h.03a.03.03 0 0 0 .02-.01l.01-.06c.03-.01.03-.04.03-.06l.02-.08a.05.05 0 0 1 0-.03.14.14 0 0 0 .04-.07.86.86 0 0 0 .01-.23.02.02 0 0 0-.02-.02.03.03 0 0 0-.02.01v.09a.04.04 0 0 1-.03.03.02.02 0 0 0 0 .02 1.73 1.73 0 0 0-.03.17l-.02.03c-.02 0-.02.02-.02.03a.38.38 0 0 0-.02.1v.08a.05.05 0 0 1-.01.01.03.03 0 0 0-.03.02.18.18 0 0 0-.02.08.28.28 0 0 1 0 .04.03.03 0 0 1-.02.03.03.03 0 0 0-.03.03v.09a.03.03 0 0 1-.03.03.03.03 0 0 0-.03.04v.06a.03.03 0 0 1-.02.03l-.02.01a.17.17 0 0 0 0 .08.02.02 0 0 0 0 .01c.02 0 .03 0 .04-.02 0-.02 0-.04.03-.05a.03.03 0 0 0 .01-.01.3.3 0 0 0 .01-.07.04.04 0 0 1 .03-.04.17.17 0 0 0 .03-.06v-.05a.04.04 0 0 1 .03-.04.03.03 0 0 0 .01-.02.36.36 0 0 0 .01-.14.09.09 0 0 1 0-.06zm-.51-4.77a.26.26 0 0 0 0-.04.02.02 0 0 0-.02-.01.02.02 0 0 0-.03 0c0 .03 0 .05.03.05a.14.14 0 0 0 .02 0 .36.36 0 0 0 0 .07c.01.03.02.04.04.04s.02.01.02.03c0 .01 0 .02.02.03a.04.04 0 0 1 .04.03.12.12 0 0 0 .02.05.16.16 0 0 0 .04.03.2.2 0 0 0 .03.01.03.03 0 0 1 .02.03v.06h.02a.02.02 0 0 0 .03-.01v-.07a.02.02 0 0 0-.02-.01.03.03 0 0 1-.03-.04.34.34 0 0 0-.02-.05.02.02 0 0 0-.02-.01.04.04 0 0 1-.03-.03v-.02a.02.02 0 0 0-.02-.02.03.03 0 0 1-.03-.03c0-.02-.01-.03-.03-.03a.02.02 0 0 1-.02-.02V9.4a.02.02 0 0 0-.02-.02h-.04zm-.11 2.08v-.16a.02.02 0 0 0-.03-.01.03.03 0 0 0-.02.01.42.42 0 0 0 0 .14.02.02 0 0 0 .02.01h.03v.19a.04.04 0 0 0 .03.04.03.03 0 0 1 .03.04v.23a.03.03 0 0 0 .03.02l.02-.02a.18.18 0 0 0 0-.03v-.22a.03.03 0 0 0-.02-.03.03.03 0 0 1-.03-.03v-.13a.4.4 0 0 0 0-.04.02.02 0 0 0-.02-.01.28.28 0 0 0-.04 0zm-1.18 5.33h-.01c-.03 0-.05 0-.05.03l-.02.02c-.03.01-.07.01-.08.05l-.02.01c-.02 0-.04.01-.04.04l-.02.02a.06.06 0 0 0-.03 0v.02a.02.02 0 0 0 .02.03h.05l.03-.03a.03.03 0 0 1 .01-.02.06.06 0 0 1 .02 0 .02.02 0 0 0 .03-.03.03.03 0 0 1 .03-.03.02.02 0 0 0 .02-.02v-.01a.03.03 0 0 1 .03-.02c.02 0 .03-.01.03-.05v-.01c.06 0 .06 0 .06-.06h.02c.02 0 .03 0 .04-.02 0-.02 0-.03.02-.03a.04.04 0 0 0 .04-.02.06.06 0 0 1 .04-.04.24.24 0 0 1 .03 0 .02.02 0 0 0 .02-.02.04.04 0 0 1 .04-.04.02.02 0 0 0 .02-.02c0-.02.01-.04.03-.04a.03.03 0 0 0 .03-.02.03.03 0 0 1 .03-.04.03.03 0 0 0 .02-.03v-.04a.02.02 0 0 0-.02-.02.02.02 0 0 0-.02.02.03.03 0 0 1-.03.03c-.02 0-.03 0-.03.03a.02.02 0 0 1-.02.02.03.03 0 0 0-.04.04c0 .01 0 .02-.02.02s-.03 0-.03.02a.04.04 0 0 1-.03.04.02.02 0 0 0-.02.03.03.03 0 0 1-.03.02.03.03 0 0 0-.03.03.03.03 0 0 1-.03.03h-.01a.02.02 0 0 0-.02.02v.03a.37.37 0 0 0-.04 0 .02.02 0 0 0-.02.02.2.2 0 0 0 0 .04zm1.24-1h-.02c-.03 0-.03 0-.04.03 0 0 0 .02-.02.02a.03.03 0 0 0-.03.03.27.27 0 0 1 0 .06l-.02.01a.14.14 0 0 1-.03.01.02.02 0 0 0 0 .02.03.03 0 0 0 0 .03l.04-.01a.05.05 0 0 1 .05-.05v-.02c.01-.02.01-.03.03-.03a.03.03 0 0 0 .03-.04l.01-.07h.03a.02.02 0 0 0 .02-.02.06.06 0 0 0 0-.02.02.02 0 0 0-.02-.02c-.01 0-.03 0-.03.02v.04zm-.79-.58c-.03 0-.05 0-.05.04a.02.02 0 0 1-.03.02c-.02 0-.03.02-.03.03 0 .02 0 .03-.02.04a.03.03 0 0 0-.03.03.33.33 0 0 0-.01.07h-.03a.02.02 0 0 0-.02.01.06.06 0 0 0 0 .03.02.02 0 0 0 .03.02.02.02 0 0 0 .02-.02v-.04h.02c.03 0 .03 0 .04-.03 0-.02 0-.03.02-.04a.02.02 0 0 0 .02-.02l.02-.05a.03.03 0 0 1 .02-.03.02.02 0 0 0 .03-.02v-.04h.01a.03.03 0 0 0 .04-.03v-.04a.03.03 0 0 0 0-.02.03.03 0 0 0-.04.01l-.01.08zm-.67.46-.06.01-.02.02a.16.16 0 0 0-.02.04.03.03 0 0 0 0 .03.02.02 0 0 0 .01 0 .02.02 0 0 0 .02 0 .03.03 0 0 0 0-.02.03.03 0 0 1 .04-.03c.02 0 .02-.01.03-.02a.15.15 0 0 1 0-.03h.03a.02.02 0 0 0 .02-.04.02.02 0 0 0-.02-.02l-.02.02v.04zm2.19-1.19-.04.01a.02.02 0 0 0-.01.02v.08a.02.02 0 0 0 .03 0 .04.04 0 0 0 .01-.01v-.1h.02c.03 0 .03 0 .03-.03v-.06a.02.02 0 0 0-.02-.02l-.02.02v.09zm-.73.85-.02.01c-.03 0-.03 0-.03.03l-.01.07h-.03a.02.02 0 0 0-.01.01.04.04 0 0 0 0 .04.02.02 0 0 0 .02.01.02.02 0 0 0 .02-.01v-.05a.27.27 0 0 0 .04 0l.01-.02v-.05a.07.07 0 0 1 .01-.04h.03a.04.04 0 0 0 .02-.04.02.02 0 0 0-.02-.02c-.01 0-.03 0-.03.02v.04zm-.17.28h.04l.01-.04a.29.29 0 0 0-.01-.04h-.01a.15.15 0 0 0-.03.08h-.04a.02.02 0 0 0-.01.01.03.03 0 0 0 0 .03.02.02 0 0 0 .03.01l.01-.01a.2.2 0 0 0 .01-.04zm-2.25 1.4a.06.06 0 0 1 .02-.01h.06a.06.06 0 0 0 .02 0 .01.01 0 0 0 0-.02v-.01a.14.14 0 0 0-.08 0V17l-.02.02-.04.01a.03.03 0 0 0-.01.03.02.02 0 0 0 .02.01c.02 0 .03 0 .03-.02V17zm2.8-1.85-.01.01h-.01l-.01.01a.16.16 0 0 0 0 .08h.03a.17.17 0 0 0 0-.03.23.23 0 0 1 0-.07.28.28 0 0 0 .05 0 .03.03 0 0 0 .01-.01.06.06 0 0 0 0-.03.02.02 0 0 0-.01-.02c-.02 0-.03 0-.04.02v.04zm-.1.22h.02s.02 0 .02-.02a.19.19 0 0 0 0-.06v-.01a.05.05 0 0 0-.01-.01h-.02l-.01.1h-.03c-.02.01-.03.02-.03.04a.02.02 0 0 0 .02.02c.02 0 .03 0 .04-.02v-.04zm-.96.12h.03c.02 0 .02-.01.03-.03v-.02a.05.05 0 0 0-.04 0 .02.02 0 0 0-.01.01l-.01.04a.23.23 0 0 0-.03 0 .02.02 0 0 0-.01.03l.01.02a.02.02 0 0 0 .02-.02v-.03zm-.39 1.46h.04a.02.02 0 0 0 .02-.02v-.04a.15.15 0 0 0 .06 0c.02-.02.04-.02.04-.04a.02.02 0 0 1 .02-.02.05.05 0 0 0 .04-.04l.03-.02.02-.01a.04.04 0 0 1 .04-.04.02.02 0 0 0 .02-.02.04.04 0 0 1 .04-.04c.01 0 .02-.01.02-.03a.03.03 0 0 1 .03-.03.03.03 0 0 0 .02-.02.03.03 0 0 1 .03-.03.03.03 0 0 0 .03-.03s0-.02.02-.02a.03.03 0 0 0 .03-.04.23.23 0 0 1 .01-.05l.02-.02h.01a.03.03 0 0 0 .03-.04v-.02h.03a.02.02 0 0 0 .01 0 .03.03 0 0 0 0-.04h-.02a.02.02 0 0 0-.02.01v.03h-.02c-.02 0-.04.01-.04.03a.03.03 0 0 1-.02.03c-.02 0-.03 0-.03.03a.03.03 0 0 1-.03.03.02.02 0 0 0-.03.02.03.03 0 0 1-.03.03c-.02 0-.02.01-.02.03a.03.03 0 0 1-.03.03.03.03 0 0 0-.03.03c0 .02-.01.02-.03.03a.03.03 0 0 0-.02.02.03.03 0 0 1-.03.03c-.02 0-.03 0-.03.02a.03.03 0 0 1-.03.04.03.03 0 0 0-.03.02c0 .02 0 .03-.03.03-.02 0-.02.02-.02.04a.02.02 0 0 1-.02.02h-.02a.02.02 0 0 0-.02.03v.02h-.03c-.02 0-.03.01-.03.03v.03a.2.2 0 0 0-.04 0 .02.02 0 0 0 0 .02v.03c.02 0 .04 0 .04-.03v-.02zm-1.18-1.29h.02c.03 0 .04-.01.04-.04v-.02h.03a.03.03 0 0 0 .03-.02.04.04 0 0 1 .03-.03.18.18 0 0 1 .03-.01.04.04 0 0 0 .04-.04l.03-.02c.01 0 .02 0 .02-.02a.03.03 0 0 1 .04-.04c.01 0 .02 0 .02-.02a.04.04 0 0 1 .04-.04.02.02 0 0 0 .01-.01l.01-.06c0-.01 0-.02-.02-.02a.02.02 0 0 0-.02.01v.01c0 .02-.01.03-.04.04a.02.02 0 0 0-.02.02.03.03 0 0 1-.03.03.03.03 0 0 0-.03.03.03.03 0 0 1-.03.03.02.02 0 0 0-.02.02.03.03 0 0 1-.04.04.02.02 0 0 0-.02.02.03.03 0 0 1-.02.03c-.04 0-.04 0-.04.04v.01c-.05 0-.06 0-.06.06a.25.25 0 0 0-.03 0c-.01 0-.02 0-.03.03v.02h-.05c-.03 0-.05.02-.06.05l-.03.01a.02.02 0 0 0-.02.02.04.04 0 0 1-.03.04c-.02 0-.03 0-.03.03a.15.15 0 0 0 0 .02.27.27 0 0 0-.08.01.02.02 0 0 0-.02.02.03.03 0 0 1-.03.03h-.02a.02.02 0 0 0-.01.02.03.03 0 0 1-.03.03h-.06a.03.03 0 0 0-.03.03.04.04 0 0 1-.03.03l-.05.02a.03.03 0 0 0-.03.02.03.03 0 0 1-.01.01.43.43 0 0 0-.07.03l-.02.01a.04.04 0 0 1-.04.03c-.01 0-.02 0-.02.02a.03.03 0 0 1-.04.03h-.05a.03.03 0 0 0-.03.03.03.03 0 0 1-.03.03h-.05a.02.02 0 0 0-.02.03.03.03 0 0 0 .02.02h.1a.02.02 0 0 0 .03-.03.03.03 0 0 1 .03-.03.7.7 0 0 0 .06 0 .02.02 0 0 0 .02-.02.04.04 0 0 1 .03-.03h.05a.03.03 0 0 0 .04-.04.02.02 0 0 1 .02-.02.18.18 0 0 0 .06-.02h.02c0-.03.02-.03.04-.04a.39.39 0 0 0 .05-.02l.02-.02a.03.03 0 0 1 .01-.01c.03-.01.05-.02.06-.05h.02a.03.03 0 0 0 .03-.04.02.02 0 0 1 .02-.02c.04 0 .04 0 .04-.05v-.01h.06c.02 0 .05 0 .05-.04 0-.01.01-.02.03-.02.02 0 .03 0 .03-.03l.02-.02h.01a.02.02 0 0 0 .02-.03.26.26 0 0 0 0-.03h.05a.02.02 0 0 0 .01-.02v-.03zm.62 1.12h-.04l-.01.02a.02.02 0 0 0 0 .02.03.03 0 0 0 .05-.01v-.03a.26.26 0 0 0 .04 0v-.02a.02.02 0 0 0 0-.02.02.02 0 0 0-.03.01v.03zm.22-.17h-.02c-.03 0-.03.02-.03.03a.02.02 0 0 0 .02.02.02.02 0 0 0 .03-.01v-.04a.38.38 0 0 0 .04 0 .01.01 0 0 0 .02-.02.04.04 0 0 0-.01-.02.03.03 0 0 0-.04.01.26.26 0 0 0-.01.03zm.17-.17a.1.1 0 0 1-.02 0c-.03 0-.03.03-.03.05h.03a.02.02 0 0 0 .02 0v-.05h.04a.02.02 0 0 0 .02-.02.02.02 0 0 0-.03-.03c-.01 0-.02 0-.03.03v.02zm.62.4h.03a.03.03 0 0 0 .02-.04.02.02 0 0 0-.03-.01.02.02 0 0 0-.01 0v.05l-.04.01-.01.01a.02.02 0 0 0 .01.02.02.02 0 0 0 .02-.01l.01-.03zm-.51-.51h.04l.02-.03a.02.02 0 0 0-.02-.02.03.03 0 0 0-.03.01l-.01.04h-.03a.02.02 0 0 0-.02.02.02.02 0 0 0 .04.03.03.03 0 0 0 0-.02.12.12 0 0 0 0-.03zm.17-.17h-.02c-.02 0-.03.01-.03.03v.03h-.04a.02.02 0 0 0-.01.02.03.03 0 0 0 0 .03.03.03 0 0 0 .05-.02v-.03h.02c.02 0 .03-.01.03-.03v-.03h.04a.02.02 0 0 0 .02-.02.03.03 0 0 0-.01-.03.03.03 0 0 0-.04.02l-.01.03zm-.95-.1h-.04a.02.02 0 0 0-.01.01.02.02 0 0 0 0 .03.03.03 0 0 0 .05-.02v-.03a.36.36 0 0 0 .04 0v-.02a.02.02 0 0 0 0-.03c-.02 0-.03 0-.03.02v.03zm1.29-.29h.02a.03.03 0 0 0 .03-.04.02.02 0 0 0-.03-.02.02.02 0 0 0-.01.02.39.39 0 0 0 0 .04h-.05a.02.02 0 0 0 0 .01.03.03 0 0 0 0 .03.02.02 0 0 0 .02 0 .02.02 0 0 0 .02 0v-.04zm-1.18-.56a.26.26 0 0 0 .04 0c.01-.01.02-.04 0-.05h-.03v.05h-.04l-.02.03a.02.02 0 0 0 .02.02c.02 0 .03 0 .03-.02v-.03zm1.74-5.95a.17.17 0 0 0 0-.04.23.23 0 0 0-.01-.05.03.03 0 0 0-.02-.01.03.03 0 0 1-.03-.03.03.03 0 0 0-.03-.04.02.02 0 0 1-.02-.02.04.04 0 0 0-.04-.04.02.02 0 0 1-.02-.02c0-.02 0-.03-.03-.03-.02 0-.02-.01-.03-.03a.03.03 0 0 0-.03-.03c-.02 0-.02 0-.02-.03a.02.02 0 0 0-.03-.02.04.04 0 0 1-.02-.01c-.03-.04-.03-.04-.06-.05h-.03a.03.03 0 0 1-.02-.03.04.04 0 0 0-.04-.03.02.02 0 0 1-.02-.02.03.03 0 0 0-.03-.03.03.03 0 0 1-.03-.03.03.03 0 0 0-.03-.03.03.03 0 0 1-.03-.02.02.02 0 0 0-.02-.03c-.03 0-.04-.01-.04-.03a.02.02 0 0 0-.02-.02l-.05-.02a.03.03 0 0 1-.02-.02.04.04 0 0 0-.04-.03c-.02 0-.03 0-.03-.02 0-.01 0-.03-.02-.03-.03 0-.04 0-.04-.03a.02.02 0 0 0-.02-.02l-.06-.01a.03.03 0 0 1-.03-.03.03.03 0 0 0-.02-.02h-.01a.03.03 0 0 1-.03-.03.02.02 0 0 0-.02-.02.55.55 0 0 1-.06-.02.03.03 0 0 1-.02-.01.05.05 0 0 0-.05-.04.02.02 0 0 1-.02-.02.03.03 0 0 0-.03-.02l-.05-.01a.03.03 0 0 1-.03-.03.02.02 0 0 0-.02-.02l-.05-.01a.03.03 0 0 1-.04-.03.02.02 0 0 0-.02-.02.14.14 0 0 1-.02 0 .03.03 0 0 1-.01-.06.03.03 0 0 1 .02 0 .51.51 0 0 1 .1 0 .03.03 0 0 1 .04.03.02.02 0 0 0 .02.02h.05l.07.01a.02.02 0 0 1 .02.02.04.04 0 0 0 .04.03.52.52 0 0 1 .06.01.03.03 0 0 1 .01.02s.01.02.03.02a.14.14 0 0 1 .06.02.05.05 0 0 1 .02.02.04.04 0 0 0 .02.02.06.06 0 0 0 .02 0 .03.03 0 0 1 .04.03.03.03 0 0 0 .03.02l.04.01a.04.04 0 0 1 .04.03c0 .02.01.02.02.02.02 0 .03 0 .03.02a.04.04 0 0 0 .04.04.02.02 0 0 1 .02.02.03.03 0 0 0 .02.03l.06.01a.03.03 0 0 1 .03.03.02.02 0 0 0 .02.02c.02 0 .04 0 .04.04 0 .01.01.02.03.02a.03.03 0 0 1 .02.01.2.2 0 0 0 .06.05c.02 0 .04.01.05.04l.03.02h.02c0 .04.03.04.06.05v.03a.02.02 0 0 0 .03.02c.03 0 .03.02.04.04a.03.03 0 0 0 .02.02.03.03 0 0 1 .03.03.02.02 0 0 0 .02.02h.02a.03.03 0 0 1 .02.03.03.03 0 0 0 .03.03.02.02 0 0 1 .02.02c0 .02 0 .04.03.04a.03.03 0 0 1 .03.03l.02.02a.03.03 0 0 1 .04.03.03.03 0 0 0 .03.03.02.02 0 0 1 .02.02c0 .01 0 .03.02.03a.04.04 0 0 1 .04.05l.02.02a.03.03 0 0 1 .03.02.38.38 0 0 1 0 .05c.01.02.02.03.04.03a.03.03 0 0 1 .02.02c0 .02.01.04.04.04l.01.02c0 .02.01.04.04.04a.02.02 0 0 1 .02.02c0 .02.01.03.03.04a.03.03 0 0 1 .02.02.4.4 0 0 1 .01.05.03.03 0 0 0 .03.04c.01 0 .02 0 .02.02l.01.05a.03.03 0 0 0 .03.03.03.03 0 0 1 .02.03.02.02 0 0 0 .03.03.04.04 0 0 1 .03.04l.01.02a.03.03 0 0 1 .04.04.41.41 0 0 0 0 .05.02.02 0 0 0 .02.02c.03 0 .04.02.04.04v.04a.11.11 0 0 0 .04.07.05.05 0 0 1 .01.03.16.16 0 0 0 .04.08.04.04 0 0 1 .02.04l.02.07v.01c.04.01.04.04.04.07a.52.52 0 0 0 .01.05c0 .02.01.04.03.04l.01.02a.26.26 0 0 1 0 .03.02.02 0 0 0 .03.02c.02 0 .03.02.03.04v.05a.08.08 0 0 0 .03.07.06.06 0 0 1 .03.06v.05a.02.02 0 0 0 .02.02.03.03 0 0 1 .02.03.96.96 0 0 1 .01.12v.06a.02.02 0 0 0 .02.01l.02.01a.02.02 0 0 1 .01.02 2.05 2.05 0 0 1 .01.17.04.04 0 0 0 .03.04.03.03 0 0 1 .01.02l.01.07v.1a.65.65 0 0 0 .01.11.03.03 0 0 0 .03.03.02.02 0 0 1 .01.02v.12l.01.36v.05l.03.02a.03.03 0 0 0 .02-.02.07.07 0 0 0 0-.02l.01-.1v-.36a.47.47 0 0 0-.02-.11.03.03 0 0 0-.01-.02.04.04 0 0 1-.03-.04v-.19l-.01-.08a.02.02 0 0 0-.01-.02.05.05 0 0 1-.03-.04.58.58 0 0 1-.01-.08v-.08a.03.03 0 0 0-.03-.03.02.02 0 0 1-.02-.03v-.11a.04.04 0 0 0-.03-.04.03.03 0 0 1-.01-.01.18.18 0 0 1-.02-.07v-.09a.16.16 0 0 0-.02-.05c0-.02 0-.03-.02-.04l-.02-.02a.43.43 0 0 1 0-.06.24.24 0 0 0-.03-.07.08.08 0 0 1-.03-.06l-.01-.05a.02.02 0 0 0-.01-.01.03.03 0 0 1-.03-.04.16.16 0 0 0-.03-.07.05.05 0 0 1-.03-.05c0-.02 0-.03-.03-.03a.02.02 0 0 1-.02-.02v-.06a.07.07 0 0 0-.03-.06.06.06 0 0 1-.03-.05c0-.02-.02-.04-.03-.05a.06.06 0 0 1-.03-.06.03.03 0 0 0-.03-.03l-.02-.04a.02.02 0 0 0-.02-.02c-.02 0-.03 0-.03-.03l-.02-.05c0-.02-.01-.02-.02-.03a.02.02 0 0 1-.02-.02.15.15 0 0 0-.02-.07.03.03 0 0 0-.02-.01.06.06 0 0 1-.03-.05.03.03 0 0 0-.02-.01l-.02-.03c0-.03-.03-.04-.03-.06a.13.13 0 0 1-.05-.06.03.03 0 0 0-.02-.01.05.05 0 0 1-.02-.04.03.03 0 0 0-.03-.03.03.03 0 0 1-.03-.03.03.03 0 0 0-.03-.03.03.03 0 0 1-.02-.03c0-.01-.01-.03-.03-.03a.03.03 0 0 1-.03-.02c0-.02 0-.03-.03-.03a.03.03 0 0 1-.02-.03.02.02 0 0 0-.03-.03.03.03 0 0 1-.03-.03c0-.02-.02-.03-.03-.03a.02.02 0 0 1-.02-.02.03.03 0 0 0-.04-.03l-.02-.04c0-.01-.01-.02-.03-.02a.03.03 0 0 1-.03-.03.03.03 0 0 0-.03-.03.02.02 0 0 1-.02-.02c0-.02-.01-.03-.03-.03-.02 0-.03-.02-.03-.04a.02.02 0 0 0-.02-.02.03.03 0 0 1-.04-.02.03.03 0 0 0-.02-.03.04.04 0 0 1-.03-.03.02.02 0 0 0-.02-.02l-.06-.02a.02.02 0 0 1-.03-.02.04.04 0 0 0-.03-.03c-.02 0-.03-.01-.03-.03a.02.02 0 0 0-.01-.02c-.03 0-.05 0-.05-.04a.02.02 0 0 0-.02-.02.03.03 0 0 1-.04-.03l-.01-.01-.07-.02a.02.02 0 0 1-.01-.02.04.04 0 0 0-.04-.03c-.02 0-.03-.01-.03-.03a.03.03 0 0 0-.03-.02.52.52 0 0 1-.06-.02.03.03 0 0 1-.01-.02.04.04 0 0 0-.03-.02.03.03 0 0 1-.04-.04c0-.01-.01-.02-.03-.02a.03.03 0 0 1-.03-.02.03.03 0 0 0-.03-.03l-.06-.01a.03.03 0 0 1-.02-.02.02.02 0 0 0-.02-.03.04.04 0 0 1-.04-.03.02.02 0 0 0-.03-.02.41.41 0 0 0-.04 0 .03.03 0 0 1-.04-.04.02.02 0 0 0-.01-.02.32.32 0 0 0-.06 0 .04.04 0 0 1-.04-.04.02.02 0 0 0-.01-.01l-.07-.02a.03.03 0 0 1-.02-.02v-.06a.03.03 0 0 1 .03-.02.15.15 0 0 1 .06.03c0 .02.02.02.04.02h.05a.04.04 0 0 1 .04.03.03.03 0 0 0 .03.02l.1.02c.02 0 .02.01.03.02a.02.02 0 0 0 .02.02h.06a.03.03 0 0 1 .04.03.03.03 0 0 0 .03.03.7.7 0 0 1 .06 0 .02.02 0 0 1 .01.01.18.18 0 0 0 .06.05.2.2 0 0 1 .04.01.04.04 0 0 1 .01.02.03.03 0 0 0 .03.02.25.25 0 0 1 .03 0v.01c.01.04.04.04.07.05h.03a.02.02 0 0 1 .01.02.03.03 0 0 0 .04.03.03.03 0 0 1 .03.03c0 .01 0 .03.02.03h.05a.04.04 0 0 1 .04.04l.03.02a.03.03 0 0 1 .03.02.03.03 0 0 0 .03.03.03.03 0 0 1 .03.03.04.04 0 0 0 .03.03.24.24 0 0 1 .05 0 .02.02 0 0 1 .01.02c0 .03.02.03.04.03.01 0 .02 0 .03.02 0 .03.01.04.04.04a.02.02 0 0 1 .02.02.04.04 0 0 0 .03.04c.02 0 .02.01.03.03a.03.03 0 0 0 .02.02l.03.01a.05.05 0 0 0 .04.05l.02.02c0 .01 0 .02.02.03a.05.05 0 0 1 .04.04.02.02 0 0 0 .02.02c.02 0 .03 0 .03.03 0 .02.02.02.03.02a.03.03 0 0 1 .03.03.04.04 0 0 0 .03.03.02.02 0 0 1 .02.02c0 .02 0 .04.03.04.02 0 .03.01.03.03a.03.03 0 0 0 .02.03.03.03 0 0 1 .03.03.02.02 0 0 0 .03.02.03.03 0 0 1 .03.04l.01.02a.04.04 0 0 1 .04.04.46.46 0 0 0 .01.05.02.02 0 0 0 .02.02.03.03 0 0 1 .03.03.03.03 0 0 0 .03.03c.01 0 .03 0 .03.02a.04.04 0 0 0 .03.04l.01.01a.37.37 0 0 1 .02.06.04.04 0 0 0 .03.03c.02 0 .02.02.02.03l.01.03c.03 0 .04.03.04.05a.27.27 0 0 0 .01.03.03.03 0 0 0 .03.03.03.03 0 0 1 .02.03v.05c0 .02.02.03.04.04a.02.02 0 0 1 .02.02.2.2 0 0 0 .01.06.04.04 0 0 0 .01.02.04.04 0 0 1 .03.04.3.3 0 0 0 .02.06.02.02 0 0 0 .01.01.04.04 0 0 1 .03.04.03.03 0 0 0 .02.03.03.03 0 0 1 .03.02v.06a.03.03 0 0 0 .04.03.02.02 0 0 1 .02.02v.06a.03.03 0 0 0 .03.03.03.03 0 0 1 .02.03l.01.07a.03.03 0 0 0 .01.02.1.1 0 0 1 .05.1v.03a.03.03 0 0 0 .02.03.03.03 0 0 1 .02.03.52.52 0 0 1 .01.1.04.04 0 0 0 .03.04.03.03 0 0 1 .02.03l.01.12a.02.02 0 0 0 .01.02c.02 0 .03.02.03.04a1 1 0 0 1 .01.15.04.04 0 0 0 .04.04.02.02 0 0 1 .01.03v.15l.01.08a.02.02 0 0 0 .02.02.04.04 0 0 1 .01 0l.02.02a.8.8 0 0 1 0 .08v.27a.02.02 0 0 0 .03.02.03.03 0 0 1 .02.03v1c0 .02 0 .03-.02.03a.02.02 0 0 0-.02.03v.39a.03.03 0 0 1-.03.03.03.03 0 0 0-.03.03v.24a.27.27 0 0 1 0 .03.03.03 0 0 1-.03.03.04.04 0 0 0-.03.04v.16a.03.03 0 0 1-.03.03.02.02 0 0 0-.02.03V14a.03.03 0 0 1-.03.03.03.03 0 0 0-.03.03v.11a.03.03 0 0 1-.03.03.02.02 0 0 0-.02.02v.1c0 .03-.01.05-.04.05a.03.03 0 0 0-.02.03v.1a.03.03 0 0 1-.03.03.03.03 0 0 0-.03.03v.07a.02.02 0 0 1-.02.02.03.03 0 0 0-.03.03.57.57 0 0 1-.01.11.03.03 0 0 1-.02.02.03.03 0 0 0-.03.04v.04a.03.03 0 0 1-.03.04.03.03 0 0 0-.03.03v.05a.03.03 0 0 1-.03.03.02.02 0 0 0-.02.03v.05a.03.03 0 0 1-.04.03.02.02 0 0 0-.02.02v.07a.02.02 0 0 1-.02.02.03.03 0 0 0-.03.03v.04c0 .02-.01.05-.05.05v.02l-.02.05a.04.04 0 0 1-.02.03.04.04 0 0 0-.03.04.03.03 0 0 1-.02.04.02.02 0 0 0-.02.02l-.02.06a.03.03 0 0 1-.01.01.04.04 0 0 0-.04.05.31.31 0 0 1 0 .05.02.02 0 0 1-.03.02.03.03 0 0 0-.02.02c0 .03-.01.04-.04.04a.02.02 0 0 0-.02.02v.07a.02.02 0 0 1-.02.01.04.04 0 0 0-.04.05.02.02 0 0 1-.02.02.04.04 0 0 0-.03.03.2.2 0 0 1-.02.05.03.03 0 0 1-.02.02.04.04 0 0 0-.02.03c0 .02-.01.03-.03.03a.02.02 0 0 0-.02.02v.02a.03.03 0 0 1-.03.02c-.01 0-.03 0-.03.02a.1.1 0 0 1-.04.07.06.06 0 0 0-.02.05.02.02 0 0 1-.02.02.04.04 0 0 0-.04.04.02.02 0 0 1-.02.02.03.03 0 0 0-.03.03c0 .02-.01.03-.03.03a.03.03 0 0 0-.03.03.03.03 0 0 1-.03.03l-.01.02c0 .02-.02.04-.05.04a.02.02 0 0 0-.02.02.03.03 0 0 1-.03.03.02.02 0 0 0-.02.02l-.01.06a.03.03 0 0 1-.03.03.02.02 0 0 0-.02.01.04.04 0 0 1-.03.04.04.04 0 0 0-.04.03.02.02 0 0 1-.02.02.04.04 0 0 0-.03.04.04.04 0 0 1-.04.03.15.15 0 0 1-.03.04.15.15 0 0 1-.03.01.02.02 0 0 0 0 .02c-.01.03-.04.03-.06.04h-.03a.03.03 0 0 0-.03.03c0 .02-.01.03-.03.03a.02.02 0 0 0-.02.02.04.04 0 0 1-.04.04.02.02 0 0 0-.02.02c0 .02-.01.03-.03.03a.02.02 0 0 0-.03.03.03.03 0 0 1-.02.03c-.02 0-.03 0-.03.02a.03.03 0 0 1-.03.03.03.03 0 0 0-.03.03.03.03 0 0 1-.03.02 1 1 0 0 0-.06.02l-.01.01a.04.04 0 0 1-.04.04.03.03 0 0 0-.03.03.03.03 0 0 1-.02.02.03.03 0 0 0-.03.03.03.03 0 0 1-.03.03.03.03 0 0 0-.04.02.03.03 0 0 1-.01.02.3.3 0 0 1-.06.02.03.03 0 0 0-.03.03.03.03 0 0 1-.02.02h-.02c-.01 0-.02 0-.02.02a.04.04 0 0 1-.04.03l-.05.01a.02.02 0 0 0-.02.02.03.03 0 0 1-.03.03l-.02.01c-.02.05-.06.04-.1.05l-.01.02c0 .02-.02.03-.04.03l-.06.02a.02.02 0 0 0 0 .01.04.04 0 0 1-.05.03l-.06.02-.01.01a.03.03 0 0 1-.03.03l-.06.02h-.02a.04.04 0 0 1-.04.04.03.03 0 0 0-.03.02.03.03 0 0 1-.03.03c-.02 0-.03.01-.03.03a.02.02 0 0 1-.02.02l-.07.01a.02.02 0 0 0-.02.02.03.03 0 0 1-.03.02l-.06.01a.1.1 0 0 0-.07.03.06.06 0 0 1-.04.03.23.23 0 0 0-.04 0l-.02.02a.05.05 0 0 1-.05.03.52.52 0 0 0-.06.01l-.02.02c0 .02-.02.03-.04.03a.26.26 0 0 0-.03 0 .04.04 0 0 0-.04.03.04.04 0 0 1-.03.02h-.06a.03.03 0 0 0-.03.03.02.02 0 0 1-.02.02l-.12.02a.03.03 0 0 0-.02.02.03.03 0 0 1-.03.02l-.08.01a.03.03 0 0 0-.02.01.1.1 0 0 1-.1.04h-.03a.06.06 0 0 0-.05.03.1.1 0 0 1-.02.02.08.08 0 0 1-.03 0 .34.34 0 0 1-.06.01.1.1 0 0 0-.05.02.15.15 0 0 1-.1.04.82.82 0 0 0-.09 0 .02.02 0 0 0-.02.02.04.04 0 0 1-.03.02.6.6 0 0 1-.11.01h-.06a.02.02 0 0 0-.03.02.04.04 0 0 1-.04.03h-.1l-.1.01a.04.04 0 0 0-.04.03.02.02 0 0 1-.02.02 9.8 9.8 0 0 1-.28.01.03.03 0 0 0-.02.02.04.04 0 0 1-.04.02l-.32.01h-.07a.03.03 0 0 0-.04.03.03.03 0 0 1-.02.02h-.54a.05.05 0 0 1-.05-.03.03.03 0 0 0-.03-.02h-.33l-.11-.01a.03.03 0 0 1-.02-.02.03.03 0 0 0-.03-.02h-.23a.05.05 0 0 1-.04-.04.04.04 0 0 0-.03-.02h-.21a.02.02 0 0 1-.03-.03.04.04 0 0 0-.04-.02l-.11-.01a.03.03 0 0 1-.03-.03.02.02 0 0 0-.02-.02h-.1a.25.25 0 0 1-.07-.02.03.03 0 0 1-.03-.02.03.03 0 0 0-.02-.02h-.12a.02.02 0 0 1-.02-.02.04.04 0 0 0-.04-.03.24.24 0 0 1-.05 0 .1.1 0 0 1-.08-.05.04.04 0 0 0-.02 0 .1.1 0 0 0-.02-.01h-.05a.03.03 0 0 1-.03-.03.03.03 0 0 0-.03-.03.04.04 0 0 1-.04-.03l-.07-.02a.07.07 0 0 1-.02 0l-.02-.02a.08.08 0 0 0-.07-.04h-.11a.03.03 0 0 1-.03-.03.02.02 0 0 0-.02-.02.28.28 0 0 1-.06-.02.04.04 0 0 1-.02-.02l-.03-.02a.13.13 0 0 1-.09-.05.05.05 0 0 0-.03-.01.03.03 0 0 1-.04-.03.02.02 0 0 0-.02-.02.21.21 0 0 0-.04 0 .04.04 0 0 1-.04-.04c0-.02-.02-.02-.03-.02a.03.03 0 0 1-.03-.03.02.02 0 0 0-.02-.02l-.07-.01-.02-.02a.03.03 0 0 0-.03-.03.03.03 0 0 1-.03-.03c0-.02-.02-.02-.03-.02l-.03-.02a.1.1 0 0 0-.08-.05.03.03 0 0 1-.03-.03.02.02 0 0 0-.02-.02.03.03 0 0 1-.03-.03.03.03 0 0 0-.03-.03h-.06a.02.02 0 0 1-.02-.03.03.03 0 0 0-.03-.02.03.03 0 0 1-.03-.04c0-.01-.01-.02-.03-.02a.03.03 0 0 1-.03-.03.03.03 0 0 0-.02-.02.03.03 0 0 1-.04-.04.02.02 0 0 0-.02-.02.03.03 0 0 1-.03-.03.02.02 0 0 0-.02-.03.03.03 0 0 1-.04-.03.02.02 0 0 0-.02-.02.03.03 0 0 1-.03-.04l-.03-.02a.03.03 0 0 1-.03-.03.03.03 0 0 0-.03-.03.03.03 0 0 1-.03-.03.03.03 0 0 0-.02-.02.03.03 0 0 1-.03-.03c0-.02 0-.03-.03-.03a.03.03 0 0 1-.03-.03v-.01a.03.03 0 0 0-.02-.02.03.03 0 0 1-.02-.03.29.29 0 0 1-.01-.03.04.04 0 0 0-.05-.05.02.02 0 0 1 0-.02c-.01-.01-.02-.03-.04-.03a.03.03 0 0 1-.03-.03c0-.02 0-.03-.03-.03a.02.02 0 0 1-.02-.02v-.02a.03.03 0 0 0-.03-.02.03.03 0 0 1-.02-.04l-.01-.05a.02.02 0 0 0-.02-.02.03.03 0 0 1-.04-.03.03.03 0 0 0-.02-.04.02.02 0 0 1-.02-.02l-.01-.05a.03.03 0 0 0-.03-.03.03.03 0 0 1-.03-.03v-.06a.02.02 0 0 0-.02-.02.03.03 0 0 1-.03-.03c0-.01 0-.03-.02-.03a.04.04 0 0 1-.03-.04v-.05a.03.03 0 0 0-.03-.02.03.03 0 0 1-.03-.03v-.05a.03.03 0 0 0-.04-.04.03.03 0 0 1-.01-.01l-.01-.06a.03.03 0 0 0-.03-.03.03.03 0 0 1-.02-.03l-.01-.12a.02.02 0 0 0-.02-.01.04.04 0 0 1-.03-.04v-.06a.03.03 0 0 0-.03-.03c-.02 0-.02-.01-.03-.03v-.1a.03.03 0 0 0-.03-.03.03.03 0 0 1-.02-.03v-.1a.03.03 0 0 0-.04-.04.02.02 0 0 1-.01-.02l-.01-.11c0-.02 0-.04-.03-.04a.02.02 0 0 1-.02-.03.76.76 0 0 1 0-.11v-.06a.03.03 0 0 0-.03-.03.03.03 0 0 1-.03-.03v-.23a.03.03 0 0 0-.03-.03.03.03 0 0 1-.02-.02v-.06l-.01-.26v-.11a.04.04 0 0 0-.03-.04.03.03 0 0 1-.02-.03v-.79a.03.03 0 0 1 .02-.02.03.03 0 0 0 .02-.04v-.08l.02-.33V13a.03.03 0 0 1 .02-.03.03.03 0 0 0 .02-.03v-.1l.01-.17a.03.03 0 0 1 .03-.03c.02 0 .02-.02.02-.03v-.17a.03.03 0 0 1 .03-.03.03.03 0 0 0 .02-.04v-.06a.7.7 0 0 1 .02-.1.03.03 0 0 1 .02-.02.02.02 0 0 0 .02-.02 7.39 7.39 0 0 0 .03-.15.03.03 0 0 0 .02-.03l.01-.1a.18.18 0 0 1 0-.02l.02-.02c.03 0 .03-.02.03-.04v-.1a.03.03 0 0 1 .04-.03.03.03 0 0 0 .02-.03v-.04a.12.12 0 0 1 .04-.09.05.05 0 0 0 .02-.03v-.06a.03.03 0 0 1 .03-.03.03.03 0 0 0 .02-.03v-.06a.02.02 0 0 1 .03-.02c.02 0 .03-.02.03-.03v-.05a.03.03 0 0 1 .03-.04c.01 0 .02 0 .02-.02a.4.4 0 0 0 0-.05c0-.02.02-.04.04-.04a.02.02 0 0 0 .02-.02.3.3 0 0 0 0-.05c0-.02.01-.04.04-.04a.02.02 0 0 0 .02-.03v-.05a.03.03 0 0 1 .03-.03.02.02 0 0 0 .02-.03l.01-.06a.02.02 0 0 1 .02-.02c.02 0 .03 0 .03-.03a.03.03 0 0 1 .03-.03.02.02 0 0 0 .02-.03.42.42 0 0 0 .01-.05.03.03 0 0 1 .03-.03.02.02 0 0 0 .02-.02l.01-.07a.02.02 0 0 1 .02-.02c.02 0 .03-.01.03-.03a.03.03 0 0 1 .03-.03.02.02 0 0 0 .02-.02l.02-.06a.03.03 0 0 1 .02-.03.03.03 0 0 0 .02-.02c0-.03.01-.04.03-.04a.02.02 0 0 0 .03-.03.03.03 0 0 1 .03-.03.02.02 0 0 0 .02-.02.05.05 0 0 1 .03-.04l.03-.07a.03.03 0 0 1 .03-.03.03.03 0 0 0 .03-.03.03.03 0 0 1 .03-.03.02.02 0 0 0 .02-.02v-.06a.03.03 0 0 1 .04-.03.03.03 0 0 0 .02-.03.03.03 0 0 1 .03-.03.03.03 0 0 0 .02-.03.03.03 0 0 1 .03-.03c.02 0 .03 0 .03-.02a.03.03 0 0 1 .03-.03.02.02 0 0 0 .03-.03.03.03 0 0 1 .03-.03.03.03 0 0 0 .02-.02.03.03 0 0 1 .03-.03.03.03 0 0 0 .03-.03.03.03 0 0 1 .03-.03c.02 0 .02-.01.03-.03V9.4a.02.02 0 0 1 .03-.01c.03 0 .02-.03.03-.05.01-.02.05-.01.05-.03a.04.04 0 0 1 .04-.04.02.02 0 0 0 .01-.01c.01-.03.02-.05.05-.05l.01-.01c0-.02.01-.03.03-.04a.04.04 0 0 0 .04-.03.02.02 0 0 1 .02-.02.03.03 0 0 0 .03-.03.03.03 0 0 1 .03-.03l.05-.01a.02.02 0 0 0 .02-.02.04.04 0 0 1 .04-.04s.02 0 .02-.02a.03.03 0 0 1 .03-.03.02.02 0 0 0 .02-.02.04.04 0 0 1 .04-.04.02.02 0 0 0 .02-.01c0-.03.01-.04.04-.04a.02.02 0 0 0 .02-.02c0-.03.01-.04.04-.04a.02.02 0 0 0 .02-.02.03.03 0 0 1 .03-.04.03.03 0 0 0 .03-.02.03.03 0 0 1 .02-.02l.05-.02a.04.04 0 0 0 .03-.02.03.03 0 0 1 .03-.03.02.02 0 0 0 .03-.02.03.03 0 0 1 .03-.03.03.03 0 0 0 .03-.03.03.03 0 0 1 .03-.02l.06-.01a.02.02 0 0 0 .02-.03.03.03 0 0 1 .03-.03.03.03 0 0 0 .03-.03.02.02 0 0 1 .01-.02h.04a.06.06 0 0 0 .05-.04.03.03 0 0 1 .03-.02c.02 0 .03-.01.04-.03a.02.02 0 0 1 .01-.02.36.36 0 0 1 .05 0 .05.05 0 0 0 .04-.04c0-.02.02-.02.03-.02a.03.03 0 0 0 .03-.03.03.03 0 0 1 .03-.02l.06-.01a.03.03 0 0 0 .02-.02.03.03 0 0 1 .03-.03h.04a.05.05 0 0 0 .04-.04.03.03 0 0 1 .03-.02.06.06 0 0 0 .02 0l.02-.02a.04.04 0 0 1 .04-.03.4.4 0 0 0 .05-.01.02.02 0 0 0 .02-.02c0-.02.01-.03.03-.03h.05c.02 0 .03-.01.03-.03 0-.02.01-.02.03-.03h.06a.02.02 0 0 0 .02-.02v-.02a.02.02 0 0 1 .02 0 .3.3 0 0 1 .05-.01.04.04 0 0 0 .05-.04.02.02 0 0 1 .01-.01l.08-.01.02-.01a.1.1 0 0 1 .08-.05h.05a.03.03 0 0 0 .03-.02.03.03 0 0 1 .03-.03h.07a.02.02 0 0 0 .02-.01.1.1 0 0 1 .09-.05h.06a.02.02 0 0 0 .02-.02.03.03 0 0 1 .03-.02.32.32 0 0 1 .11-.02l.03-.01a.04.04 0 0 1 .04-.03h.1l.06-.01a.02.02 0 0 0 .02-.02c0-.02.01-.03.03-.03h.16a.03.03 0 0 0 .03-.03.03.03 0 0 1 .03-.03.57.57 0 0 1 .1 0h.12a.04.04 0 0 0 .03-.03.04.04 0 0 1 .04-.02h.14l.13-.01c.02 0 .04 0 .05-.03h.02a.18.18 0 0 1 .07-.02h.26a.54.54 0 0 0 .06-.01.02.02 0 0 0 0-.01.28.28 0 0 0 .01-.04l.01-.14a.03.03 0 0 1 .02-.03.03.03 0 0 0 .03-.02v-.1l.01-.14a.03.03 0 0 1 .02-.02.02.02 0 0 0 .02-.02l.01-.07a.03.03 0 0 1 .02-.03c.02 0 .03 0 .03.02s.01.03.04.03a.03.03 0 0 1 .03.03v.02a.02.02 0 0 0 .02.01.03.03 0 0 1 .03.03.03.03 0 0 0 .03.03.03.03 0 0 1 .02.02c0 .02.02.03.04.03a.03.03 0 0 1 .02.03c0 .02.02.03.04.03a.02.02 0 0 1 .01.03.03.03 0 0 0 .04.03.03.03 0 0 1 .02.03c0 .01.01.02.03.02.02 0 .03.01.03.03l.02.02c.02 0 .04.02.04.05l.02.01c.02 0 .03.01.03.04l.03.02a.03.03 0 0 1 .03.03.03.03 0 0 0 .03.03.03.03 0 0 1 .02.02.03.03 0 0 0 .04.04.02.02 0 0 1 .02.02v.01a.03.03 0 0 0 .03.02.02.02 0 0 1 .02.03.03.03 0 0 0 .03.03c.02 0 .03 0 .03.03 0 .02.02.02.03.02a.02.02 0 0 1 .03.02v.02a.03.03 0 0 0 .03.02.03.03 0 0 1 .02.03.03.03 0 0 0 .03.02.03.03 0 0 1 .03.03c0 .02 0 .03.02.03a.03.03 0 0 1 .04.03.03.03 0 0 0 .02.02.03.03 0 0 1 .03.04.02.02 0 0 0 .03.02c.02 0 .03.02.03.04a.02.02 0 0 0 .02.02.04.04 0 0 1 .04.03.02.02 0 0 0 .02.02c.02 0 .03.01.03.03 0 .02.02.03.03.03a.02.02 0 0 1 .02.02.04.04 0 0 0 .04.04.02.02 0 0 1 .02.02c0 .02.01.03.02.03.03 0 .04.01.04.04l.03.02a.02.02 0 0 1 .02.02.03.03 0 0 0 .04.03c.02 0 .02.02.02.04a.02.02 0 0 0 .03.02c.02 0 .03.01.03.04a.03.03 0 0 0 .03.02.03.03 0 0 1 .02.02.03.03 0 0 0 .03.03.03.03 0 0 1 .03.03.03.03 0 0 0 .03.03.02.02 0 0 1 .03.03c0 .02.01.03.03.03a.02.02 0 0 1 .02.02c0 .02.01.03.04.03a.02.02 0 0 1 .02.03c0 .02.01.03.03.03.02 0 .03.01.03.03a.03.03 0 0 0 .02.02.03.03 0 0 1 .03.03c0 .02.02.03.04.03a.02.02 0 0 1 .02.02.03.03 0 0 0 .03.03.02.02 0 0 1 .02.03c0 .02.01.03.04.03a.03.03 0 0 1 .02.03c0 .02.01.03.03.03a.02.02 0 0 1 .02.02l-.01.04a.04.04 0 0 0-.04.03.03.03 0 0 1-.01.02h-.07a.03.03 0 0 0-.03.04.03.03 0 0 1-.03.02.29.29 0 0 1-.03 0 .04.04 0 0 0-.05.04.03.03 0 0 1-.02.01.39.39 0 0 1-.05.01.04.04 0 0 0-.04.03.03.03 0 0 1-.03.02h-.06a.03.03 0 0 0-.02.03.03.03 0 0 1-.04.03h-.04a.03.03 0 0 0-.03.03.02.02 0 0 1-.03.02.14.14 0 0 0-.05.02c-.01 0-.02 0-.03.02a.04.04 0 0 1-.03.02h-.02a.02.02 0 0 0-.02.02.04.04 0 0 1-.03.03l-.05.01a.03.03 0 0 0-.03.02.03.03 0 0 1-.03.03h-.05a.04.04 0 0 0-.03.03.03.03 0 0 1-.03.03.41.41 0 0 1-.05 0c-.02 0-.03.02-.03.04a.03.03 0 0 1-.02.01l-.07.01a.02.02 0 0 0-.02.02.03.03 0 0 1-.04.03h-.04a.03.03 0 0 0-.03.03.04.04 0 0 1-.04.03.5.5 0 0 0-.05 0 .02.02 0 0 0-.02.02.03.03 0 0 1-.03.03.1.1 0 0 0-.07.04.07.07 0 0 1-.06.02.02.02 0 0 0-.02.02c0 .02-.02.03-.04.03h-.04c-.02 0-.03.02-.04.04a.02.02 0 0 1-.01.02h-.08a.02.02 0 0 0-.01.02.04.04 0 0 1-.05.04.3.3 0 0 0-.04 0 .02.02 0 0 0-.02.03.03.03 0 0 1-.03.02l-.06.01-.02.02c0 .03-.03.03-.06.03a.09.09 0 0 0-.05.04.05.05 0 0 1-.04.02.03.03 0 0 0-.03.03.02.02 0 0 1-.03.02h-.06a.03.03 0 0 0-.02.02v.02a.02.02 0 0 1-.02.02h-.07a.02.02 0 0 0-.02.02.04.04 0 0 1-.03.04h-.06l-.02.03a.03.03 0 0 1-.02.02h-.03a.03.03 0 0 0-.01.01.06.06 0 0 1-.04.04.2.2 0 0 1-.05.01.02.02 0 0 0-.03.02.03.03 0 0 1-.02.02l-.05.01c-.03 0-.04 0-.04-.04a2.3 2.3 0 0 1 0-.27.03.03 0 0 1 .04-.03.02.02 0 0 0 .01-.02V9.9a.02.02 0 0 0-.02-.02H17a.02.02 0 0 0-.03.02.03.03 0 0 1-.03.03.57.57 0 0 1-.1 0l-.06.01a.02.02 0 0 0-.02.02.04.04 0 0 1-.04.03h-.1c-.02 0-.03 0-.04.03a.03.03 0 0 1-.03.02l-.1.01c-.02 0-.03.01-.03.03a.02.02 0 0 1-.02.02 1 1 0 0 1-.06 0 .04.04 0 0 0-.04.03.03.03 0 0 1-.03.02l-.07.01-.02.01a.05.05 0 0 1-.03.03.3.3 0 0 1-.06.02.02.02 0 0 0-.02.01.04.04 0 0 1-.03.03l-.05.01a.03.03 0 0 0-.03.02.04.04 0 0 1-.03.03l-.05.01a.02.02 0 0 0-.02.02.03.03 0 0 1-.04.03.42.42 0 0 0-.06.01v.01c-.01.03-.04.04-.06.04a.02.02 0 0 0-.01.01.04.04 0 0 1-.04.03l-.05.02a.02.02 0 0 0-.02.02.03.03 0 0 1-.03.03c-.02 0-.03 0-.03.02s-.02.03-.04.03a.2.2 0 0 0-.05.02.03.03 0 0 0-.02.01c0 .02-.01.04-.03.04a.03.03 0 0 0-.03.03l-.03.02a.03.03 0 0 0-.03.02.04.04 0 0 1-.03.04.03.03 0 0 0-.03.02.03.03 0 0 1-.02.02.03.03 0 0 0-.04.03.03.03 0 0 1-.02.03.28.28 0 0 0-.03.01.05.05 0 0 0-.05.04.03.03 0 0 1-.03.02.03.03 0 0 0-.02.03.03.03 0 0 1-.03.02.04.04 0 0 0-.03.04.02.02 0 0 1-.02.02.04.04 0 0 0-.04.04.18.18 0 0 1 0 .04.03.03 0 0 1-.02.02.04.04 0 0 0-.04.04.03.03 0 0 1-.03.02l-.02.03c0 .01 0 .02-.02.02a.04.04 0 0 0-.04.05l-.02.02c-.02 0-.03 0-.03.02a.22.22 0 0 1-.02.06.03.03 0 0 1-.02.02c-.02 0-.02.02-.02.03a.03.03 0 0 1-.03.04.03.03 0 0 0-.02.02.04.04 0 0 1-.04.04.02.02 0 0 0-.02.02v.05a.03.03 0 0 1-.03.03.02.02 0 0 0-.03.03v.06a.03.03 0 0 1-.03.02.03.03 0 0 0-.02.02l-.02.07a.03.03 0 0 1-.02.02.02.02 0 0 0-.02.02.13.13 0 0 1-.04.1.04.04 0 0 0-.02.01v.07a.03.03 0 0 1-.03.02.02.02 0 0 0-.02.02v.07a.03.03 0 0 1-.03.04c-.02 0-.02.01-.03.03v.1a.03.03 0 0 1-.03.03.03.03 0 0 0-.02.04l-.01.1a.04.04 0 0 1-.03.04.02.02 0 0 0-.02.02v.16a.1.1 0 0 1-.04.08.03.03 0 0 0-.01.02.41.41 0 0 0 0 .05l-.01.24a.04.04 0 0 1-.03.04.03.03 0 0 0-.02.03v.61a.04.04 0 0 0 .03.04.03.03 0 0 1 .02.03v.28a.03.03 0 0 0 .03.03.03.03 0 0 1 .02.04l.01.11v.05a.03.03 0 0 0 .03.02.03.03 0 0 1 .02.03v.12a.03.03 0 0 0 .03.02.03.03 0 0 1 .03.04v.06a.02.02 0 0 0 .02.02c.02 0 .03 0 .03.03l.01.07a.03.03 0 0 0 .02.02c.02.01.02.04.03.06a.23.23 0 0 1 0 .03.03.03 0 0 0 .02.02c.03.01.04.04.04.07 0 .01 0 .03.03.03a.03.03 0 0 1 .02.03l.01.06a.02.02 0 0 0 .02.02.03.03 0 0 1 .03.03v.06a.02.02 0 0 0 .03.02.04.04 0 0 1 .03.03c0 .02.02.03.03.03a.02.02 0 0 1 .02.02c0 .02.01.03.03.03.02 0 .03.01.03.03 0 .03.01.03.03.04a.02.02 0 0 1 .02.02v.01a.04.04 0 0 0 .03.03c.01 0 .02 0 .02.02s.02.02.04.03a.03.03 0 0 1 .02.02.03.03 0 0 0 .03.04.02.02 0 0 1 .02.02.04.04 0 0 0 .04.03.03.03 0 0 1 .02.03.03.03 0 0 0 .03.02c.02 0 .04.01.04.04 0 .01.01.02.03.02a.03.03 0 0 1 .02.02c0 .02.02.03.03.03a.03.03 0 0 1 .03.03c0 .01 0 .03.02.03.03 0 .05 0 .05.03a.02.02 0 0 0 .01 0l.06.03c.02 0 .03.01.03.03a.02.02 0 0 0 .02.02h.05a.04.04 0 0 1 .04.04l.02.02h.06a.03.03 0 0 1 .03.03.02.02 0 0 0 .02.02h.06a.03.03 0 0 1 .03.03.03.03 0 0 0 .04.03h.04a.03.03 0 0 1 .04.03.03.03 0 0 0 .03.02.35.35 0 0 1 .1.02.05.05 0 0 1 .01 0 .02.02 0 0 1 .01.01.04.04 0 0 0 .04.03H16a.03.03 0 0 1 .03.03c0 .02.02.03.04.03h.1a.67.67 0 0 1 .07 0 .02.02 0 0 1 .01.02.04.04 0 0 0 .04.03h.36a.27.27 0 0 1 .03 0 .02.02 0 0 1 .02.03.03.03 0 0 0 .04.03h.38a.02.02 0 0 0 .03-.02c0-.03.02-.03.05-.03h.37a.04.04 0 0 0 .04-.04.02.02 0 0 1 .02-.01l.07-.01h.15a.03.03 0 0 0 .03-.03.03.03 0 0 1 .02-.02.38.38 0 0 1 .1-.01.1.1 0 0 0 .04 0l.01-.02c0-.02.02-.03.05-.03h.08a.03.03 0 0 0 .04-.04.03.03 0 0 1 .03-.02h.07a.02.02 0 0 0 .02-.02l.03-.02a.2.2 0 0 1 .09-.02c.02 0 .03 0 .04-.03a.02.02 0 0 1 .02-.02h.06a.03.03 0 0 0 .04-.03.02.02 0 0 1 .02-.02.41.41 0 0 1 .05-.01c.02 0 .03-.01.04-.03a.02.02 0 0 1 .01-.02.7.7 0 0 1 .06 0 .03.03 0 0 0 .03-.03c0-.02.02-.03.03-.03.02 0 .04 0 .04-.03a.02.02 0 0 1 .02-.02l.06-.01a.02.02 0 0 0 .02-.03l.03-.02c.02 0 .03 0 .04-.02a.04.04 0 0 1 .03-.03l.05-.01c.02 0 .02-.01.02-.03l.02-.02a.28.28 0 0 0 .07-.02.03.03 0 0 0 .01-.02c0-.01.01-.02.03-.02.02 0 .04-.01.04-.04a.02.02 0 0 1 .02-.02c.02 0 .03 0 .04-.03 0-.01 0-.02.02-.02a.03.03 0 0 0 .03-.03c0-.02.01-.03.03-.03a.03.03 0 0 0 .03-.03.03.03 0 0 1 .03-.03.03.03 0 0 0 .02-.02.02.02 0 0 1 .02-.03l.07-.02a.03.03 0 0 0 .01-.02.04.04 0 0 1 .04-.02c.02 0 .02-.02.03-.03a.4.4 0 0 1 0-.06.02.02 0 0 1 .03-.02.02.02 0 0 0 .03-.02c0-.02.01-.04.03-.04a.02.02 0 0 0 .02-.02.04.04 0 0 1 .04-.03.03.03 0 0 0 .02-.03.03.03 0 0 1 .03-.03.02.02 0 0 0 .02-.02.05.05 0 0 1 .04-.04.01.01 0 0 0 .02-.01v-.07a.02.02 0 0 1 .03-.02.03.03 0 0 0 .03-.04.03.03 0 0 1 .02-.02.03.03 0 0 0 .03-.03c0-.02.02-.03.04-.03a.02.02 0 0 0 .02-.02v-.06a.03.03 0 0 1 .03-.03.03.03 0 0 0 .02-.02l.02-.06a.03.03 0 0 1 .02-.02.03.03 0 0 0 .02-.03.04.04 0 0 1 .04-.05.02.02 0 0 0 .02-.02v-.05a.03.03 0 0 1 .03-.03.03.03 0 0 0 .02-.03v-.04c0-.03.02-.04.04-.05a.02.02 0 0 0 .02-.01v-.07a.03.03 0 0 1 .03-.03c.02 0 .03 0 .03-.03a.34.34 0 0 1 0-.09l.02-.02a.04.04 0 0 0 .03-.05v-.04a.04.04 0 0 1 .04-.05.02.02 0 0 0 .02-.01v-.1a.13.13 0 0 1 0-.04l.02-.01c.02 0 .03-.02.03-.05v-.08l.01-.07a.02.02 0 0 1 .02-.02.03.03 0 0 0 .03-.03v-.28a.03.03 0 0 1 .03-.03.03.03 0 0 0 .03-.03v-.78a.04.04 0 0 0-.04-.04l-.01-.03a11.82 11.82 0 0 1-.01-.22.03.03 0 0 0-.03-.03.03.03 0 0 1-.02-.02.5.5 0 0 1 0-.11.06.06 0 0 0-.03-.05.12.12 0 0 1-.02-.03.07.07 0 0 1 0-.03l-.01-.07c0-.01 0-.02-.03-.03a.03.03 0 0 1-.02-.02v-.06a.04.04 0 0 0-.04-.05.03.03 0 0 1 0-.01.3.3 0 0 1-.02-.05v-.06a.02.02 0 0 0-.03-.02c-.02 0-.03-.02-.03-.04a.03.03 0 0 0-.02-.03.03.03 0 0 1-.02-.02.25.25 0 0 1-.02-.06.02.02 0 0 0-.02-.02c-.01 0-.02-.01-.02-.03l-.02-.05a.03.03 0 0 0-.02-.03c-.02 0-.03-.02-.03-.04 0-.01 0-.02-.02-.02a.03.03 0 0 1-.03-.03v-.05a.03.03 0 0 0-.04-.03.02.02 0 0 1-.02-.02c0-.02 0-.04-.03-.04a.02.02 0 0 1-.02-.02.04.04 0 0 0-.04-.04.02.02 0 0 1-.02-.02c0-.02 0-.03-.03-.03-.02 0-.02-.02-.03-.03a.03.03 0 0 0-.02-.04.03.03 0 0 1-.02-.02.03.03 0 0 0-.03-.03c-.02 0-.03 0-.03-.03 0-.02-.02-.02-.04-.03h-.01a.06.06 0 0 0-.05-.05l-.01-.02a.03.03 0 0 0-.03-.03.03.03 0 0 1-.04-.04l-.02-.02c-.02 0-.03 0-.03-.02s-.02-.03-.04-.03a.03.03 0 0 1-.01-.05.03.03 0 0 1 .02-.01.13.13 0 0 1 .03 0h.04a.02.02 0 0 1 0 .01.04.04 0 0 0 .05.04c.02 0 .02.02.02.03a.02.02 0 0 0 .02.03h.06a.03.03 0 0 1 .03.03.03.03 0 0 0 .02.03h.02a.02.02 0 0 1 .02.02.03.03 0 0 0 .03.03.03.03 0 0 1 .03.03l.01.02a.04.04 0 0 1 .05.05l.01.01h.02a.03.03 0 0 1 .02.03c0 .01 0 .03.02.03a.04.04 0 0 1 .04.03.03.03 0 0 0 .03.02.03.03 0 0 1 .03.03.02.02 0 0 0 .01.03.04.04 0 0 1 .04.04.02.02 0 0 0 .02.02c.02 0 .03 0 .03.02 0 .03.02.03.04.04a.02.02 0 0 1 .02.02c0 .02.01.03.03.03a.02.02 0 0 1 .02.02l.02.06a.03.03 0 0 0 .02.02.04.04 0 0 1 .03.04.02.02 0 0 0 .02.02.03.03 0 0 1 .03.04c0 .02.01.03.03.03.01 0 .02 0 .02.02l.01.06a.03.03 0 0 0 .03.02.03.03 0 0 1 .02.03.16.16 0 0 0 0 .02.02.02 0 0 0 .02.02.03.03 0 0 1 .03.03v.04c.01.02.02.04.04.04l.02.02a.42.42 0 0 1 0 .05c0 .03.02.04.04.04a.03.03 0 0 1 .02.03v.07a.02.02 0 0 0 .02.02.04.04 0 0 1 .03.02.27.27 0 0 1 0 .1c0 .02.01.04.04.04a.02.02 0 0 1 .02.02V12a.05.05 0 0 0 .02.04.1.1 0 0 1 .04.08v.18a.02.02 0 0 0 .02.02.05.05 0 0 1 .03.05v.56a.2.2 0 0 0 .01.04.03.03 0 0 0 .02.01.02.02 0 0 0 .02-.01.27.27 0 0 0 0-.04v-.65a.03.03 0 0 0-.02-.03.03.03 0 0 1-.03-.03v-.29a.02.02 0 0 0-.02-.03.03.03 0 0 1-.03-.03v-.12l-.01-.03a.03.03 0 0 0-.02-.04.03.03 0 0 1-.03-.02v-.11a.03.03 0 0 0-.04-.03.03.03 0 0 1-.02-.03v-.06a.02.02 0 0 0-.02-.03.03.03 0 0 1-.03-.03.66.66 0 0 0-.01-.07l-.01-.01c-.04 0-.04-.04-.04-.06a.13.13 0 0 0 0-.03l-.02-.02a.04.04 0 0 1-.04-.05.03.03 0 0 0-.01-.02.04.04 0 0 1-.03-.03.12.12 0 0 1-.02-.04.04.04 0 0 0-.03-.04.03.03 0 0 1-.01-.02.4.4 0 0 1-.01-.05.03.03 0 0 0-.03-.03.03.03 0 0 1-.03-.03.03.03 0 0 0-.03-.03.02.02 0 0 1-.02-.03.04.04 0 0 0-.03-.04.03.03 0 0 1-.02-.02l-.01-.05a.02.02 0 0 0-.02-.02.04.04 0 0 1-.04-.04.03.03 0 0 0-.02-.02.03.03 0 0 1-.03-.03.03.03 0 0 0-.03-.03c-.02 0-.03-.01-.03-.03v-.02c-.04 0-.05-.03-.06-.05l-.02-.01a.02.02 0 0 1-.02-.02l-.02-.06a.02.02 0 0 0-.02-.02.04.04 0 0 1-.03-.04.03.03 0 0 0-.03-.02l-.05-.02a.02.02 0 0 1-.02-.02L20 10.2a.02.02 0 0 0-.02-.02.03.03 0 0 1-.04-.02.05.05 0 0 0-.03-.04.03.03 0 0 1-.02-.02c0-.02 0-.03-.02-.03a.03.03 0 0 1-.04-.03.03.03 0 0 0-.03-.03.02.02 0 0 1-.02-.02.03.03 0 0 0-.03-.04h-.02a.02.02 0 0 1 0-.02.07.07 0 0 1 0-.03.27.27 0 0 1 .02-.04.07.07 0 0 1 .02.02.04.04 0 0 0 .04.02.03.03 0 0 1 .03.03.02.02 0 0 0 .02.02c.02 0 .03 0 .03.03 0 .02.02.03.04.03a.03.03 0 0 1 .02.02.03.03 0 0 0 .03.03.03.03 0 0 1 .03.02c0 .02.01.04.03.04a.15.15 0 0 1 .03 0 .04.04 0 0 1 .04.04.04.04 0 0 0 .03.02c.02 0 .02.01.03.02a.04.04 0 0 0 .03.04.04.04 0 0 1 .03.03.02.02 0 0 0 .02.02.03.03 0 0 1 .04.03.02.02 0 0 0 .02.02.03.03 0 0 1 .03.04.02.02 0 0 0 .02.02c.02 0 .04 0 .04.04a.03.03 0 0 0 .03.02.03.03 0 0 1 .03.03.03.03 0 0 0 .02.02c.01 0 .02 0 .03.02 0 .03.01.04.04.05l.01.01a.12.12 0 0 0 .01.02l.01.02a.04.04 0 0 1 .04.04v.03c0 .03.02.03.04.04a.02.02 0 0 1 .02.02c0 .02.01.03.03.03a.03.03 0 0 1 .03.03c0 .01 0 .03.02.03s.03.02.03.03a.04.04 0 0 0 .01.03.13.13 0 0 1 .05.09.02.02 0 0 0 .02.02c.03 0 .03.01.04.03a.12.12 0 0 0 .01.03c.04 0 .04.04.04.07v.02a.02.02 0 0 0 .02.02.03.03 0 0 1 .04.03v.05a.03.03 0 0 0 .03.03.02.02 0 0 1 .02.02.2.2 0 0 1 0 .05.04.04 0 0 0 .04.04.02.02 0 0 1 .02.02.56.56 0 0 1 0 .06.03.03 0 0 0 .03.03.03.03 0 0 1 .03.03v.07a.04.04 0 0 0 .01.02.16.16 0 0 1 .04.12.15.15 0 0 0 0 .03.03.03 0 0 0 .02.02c.01 0 .02 0 .02.02a.25.25 0 0 1 .02.07v.1a.03.03 0 0 0 .03.03.02.02 0 0 1 .02.02.98.98 0 0 1 0 .14l.01.15a.03.03 0 0 0 .02.03c.02 0 .03.01.03.03v.42a.2.2 0 0 0 0 .04h.02a.02.02 0 0 0 .02 0 .13.13 0 0 0 0-.03v-.45a.43.43 0 0 0 0-.05.03.03 0 0 0-.01-.02.04.04 0 0 1-.03-.04v-.3a.3.3 0 0 0 0-.05l-.02-.01h-.02a.02.02 0 0 1-.01-.03l-.01-.11v-.07a.02.02 0 0 0-.02-.02.04.04 0 0 1-.03-.04l-.01-.1a.02.02 0 0 0-.02-.03c-.02 0-.02-.01-.03-.03a.48.48 0 0 1 0-.1.03.03 0 0 0-.03-.03.03.03 0 0 1-.03-.04v-.04a.03.03 0 0 0-.03-.04.02.02 0 0 1-.02-.02v-.06a.03.03 0 0 0-.03-.03.03.03 0 0 1-.03-.03v-.05a.03.03 0 0 0-.03-.04.02.02 0 0 1-.02-.02v-.05c-.01-.02-.02-.03-.04-.03a.02.02 0 0 1-.02-.02.1.1 0 0 0 0-.03l-.02-.01c-.03-.01-.03-.03-.03-.05l-.01-.05a.02.02 0 0 0-.02-.01c-.02 0-.03 0-.04-.03a.04.04 0 0 0-.03-.04.02.02 0 0 1-.01-.02.33.33 0 0 1-.01-.05c0-.02-.01-.03-.03-.03a.03.03 0 0 1-.03-.03.02.02 0 0 0-.02-.02.03.03 0 0 1-.03-.03c0-.01 0-.03-.02-.03-.03 0-.03-.04-.04-.06v-.03a.02.02 0 0 0-.02-.02.04.04 0 0 1-.04-.03.03.03 0 0 0-.03-.03.02.02 0 0 1-.02-.02.03.03 0 0 0-.03-.03.03.03 0 0 1-.03-.03.03.03 0 0 0-.03-.03.02.02 0 0 1-.02-.02v-.02a.03.03 0 0 0-.03-.02.03.03 0 0 1-.03-.03.03.03 0 0 0-.03-.02.03.03 0 0 1-.03-.03c0-.02 0-.03-.02-.03a.03.03 0 0 1-.03-.03.03.03 0 0 0-.03-.03.03.03 0 0 1-.02-.02.18.18 0 0 0-.03-.08l-.06-.02a.03.03 0 0 1-.02-.02c0-.01-.01-.02-.03-.02a.05.05 0 0 1-.04-.05.03.03 0 0 0-.01-.01.04.04 0 0 1-.04-.04.4.4 0 0 0-.02-.05.03.03 0 0 0-.02-.01.04.04 0 0 1-.02-.05.02.02 0 0 1 .02-.02.15.15 0 0 1 .02 0 .02.02 0 0 1 .02.02c0 .02 0 .03.03.03a.52.52 0 0 1 .06.02.02.02 0 0 1 .01.01c0 .03.02.03.04.03a.03.03 0 0 1 .03.03.03.03 0 0 0 .03.03.03.03 0 0 1 .02.02.03.03 0 0 0 .03.03.03.03 0 0 1 .03.03c0 .02.01.03.03.03a.04.04 0 0 1 .02 0c.02.02.01.05.04.05a.45.45 0 0 1 .06.02.02.02 0 0 1 .01.01l.01.02.02.01a.04.04 0 0 1 .03.04.03.03 0 0 0 .03.02c.02 0 .03 0 .03.03a.03.03 0 0 0 .03.02.04.04 0 0 1 .03.04c0 .01.01.02.03.02a.03.03 0 0 1 .02.02c0 .02.01.03.03.04a.03.03 0 0 1 .03.03.02.02 0 0 0 .02.02.04.04 0 0 1 .04.03.03.03 0 0 0 .02.03.03.03 0 0 1 .03.03.03.03 0 0 0 .03.03.03.03 0 0 1 .02.03.03.03 0 0 0 .02.02c.02 0 .03.01.04.03l.01.05a.04.04 0 0 0 .03.03.03.03 0 0 1 .02.03c0 .01 0 .03.03.03a.03.03 0 0 1 .03.03.04.04 0 0 0 .03.03.02.02 0 0 1 .02.02l.01.06a.03.03 0 0 0 .02.02.05.05 0 0 1 .03.05l.03.01a.03.03 0 0 1 .02.03l.01.06a.03.03 0 0 0 .02.02.03.03 0 0 1 .03.03.03.03 0 0 0 .03.04.03.03 0 0 1 .02.02l.01.07.01.02c.02 0 .03.02.04.04v.05a.03.03 0 0 0 .02.02.04.04 0 0 1 .03.04.41.41 0 0 0 .01.05.05.05 0 0 0 .01.02.13.13 0 0 1 .05.1v.05a.03.03 0 0 0 .02.02.04.04 0 0 1 .02.03.51.51 0 0 1 .01.1v.05c0 .02 0 .04.03.04a.03.03 0 0 1 .02.03l.01.12v.11a.03.03 0 0 0 .02.03.03.03 0 0 1 .03.02v.36l.01.1a.02.02 0 0 0 .02.01l.02-.01a.54.54 0 0 0 0-.06V12a.24.24 0 0 0-.01-.08.16.16 0 0 1-.04-.12v-.15a.03.03 0 0 0-.02-.03.02.02 0 0 1-.03-.02.56.56 0 0 1 0-.1l-.01-.07a.02.02 0 0 0-.02-.02.04.04 0 0 1-.03-.05.55.55 0 0 0 0-.06.03.03 0 0 0-.01-.02.09.09 0 0 1-.03-.03.1.1 0 0 1-.02-.05v-.07a.02.02 0 0 0-.01-.01.04.04 0 0 1-.04-.04v-.05a.04.04 0 0 0-.03-.03.03.03 0 0 1-.02-.02l-.01-.06a.04.04 0 0 0-.02-.03.03.03 0 0 1-.02-.02.3.3 0 0 1-.02-.06.03.03 0 0 0-.03-.03.03.03 0 0 1-.02-.02v-.05a.03.03 0 0 0-.03-.03.03.03 0 0 1-.03-.04l-.01-.02a.05.05 0 0 1-.04-.05v-.04c0-.02-.02-.02-.03-.03-.02 0-.03 0-.03-.02a.03.03 0 0 0-.03-.04.02.02 0 0 1-.02-.02.1.1 0 0 0 0-.02l-.02-.02a.05.05 0 0 1-.04-.03l-.01-.04a.04.04 0 0 0-.03-.03.03.03 0 0 1-.02-.02.03.03 0 0 0-.03-.03.03.03 0 0 1-.03-.03c0-.02 0-.03-.02-.03s-.03-.02-.03-.04a.03.03 0 0 0-.03-.02c-.01 0-.02 0-.03-.02a.03.03 0 0 0-.03-.04c-.01 0-.02 0-.02-.02s-.01-.03-.03-.03a.03.03 0 0 1-.03-.03.02.02 0 0 0-.02-.02c-.02 0-.03-.02-.04-.04a.03.03 0 0 0-.02-.02.03.03 0 0 1-.03-.03c0-.02 0-.03-.03-.03a.03.03 0 0 1-.03-.02c0-.02 0-.03-.02-.03a.04.04 0 0 1-.04-.03.02.02 0 0 0-.02-.03.03.03 0 0 1-.03-.03.03.03 0 0 0-.03-.03c-.01 0-.03 0-.03-.02a.04.04 0 0 0-.03-.03.02.02 0 0 1-.02-.02.04.04 0 0 0-.05-.04.17.17 0 0 1-.03 0 .02.02 0 0 1-.02-.03.04.04 0 0 0-.03-.03c-.02 0-.04-.01-.04-.03a.02.02 0 0 0-.02-.02c-.02 0-.04 0-.04-.03 0-.02-.01-.03-.03-.03a.02.02 0 0 1-.02-.02.04.04 0 0 0-.04-.05h-.01a.02.02 0 0 1 0-.03.13.13 0 0 1 .08 0 .02.02 0 0 1 .01.01c0 .03.03.03.04.03a.03.03 0 0 1 .03.03.02.02 0 0 0 .03.03h.05a.03.03 0 0 1 .03.03.03.03 0 0 0 .03.02.24.24 0 0 0 .04.01.04.04 0 0 1 .05.04l.02.01a.03.03 0 0 1 .03.03c0 .02.01.03.03.03a.4.4 0 0 1 .06 0v.02c.01.03.04.03.07.04l.01.02a.02.02 0 0 0 .03.03c.02 0 .03 0 .03.03 0 .02.01.03.03.03a.02.02 0 0 1 .03.02.03.03 0 0 0 .02.03c.02 0 .03 0 .03.02a.04.04 0 0 0 .04.04c.02 0 .02.01.02.02a.03.03 0 0 0 .03.03.28.28 0 0 0 .03 0 .04.04 0 0 1 .05.04.02.02 0 0 0 .02.02c.02 0 .03 0 .03.03a.03.03 0 0 0 .04.03.02.02 0 0 1 .02.02l.01.05a.04.04 0 0 0 .03.03.03.03 0 0 1 .02.03c0 .02.01.03.03.03.02 0 .03.02.03.03a.03.03 0 0 0 .02.03c.02 0 .03.01.03.03 0 .02.01.03.03.03a.02.02 0 0 1 .02.02.03.03 0 0 0 .04.04.02.02 0 0 1 .02.02l.01.06a.02.02 0 0 0 .01.02c.03 0 .04.02.04.05l.02.03.01.02.05.02a.03.03 0 0 0 .03-.02c0-.02 0-.03-.03-.04-.02 0-.03-.01-.03-.03a.4.4 0 0 1 0-.05c0-.02-.02-.03-.04-.03l-.01-.02c0-.02-.01-.03-.03-.04a.03.03 0 0 1-.03-.04v-.01c0-.03-.01-.05-.04-.06a.02.02 0 0 1-.02-.02c0-.02 0-.03-.03-.03-.01 0-.02-.01-.02-.03a.03.03 0 0 0-.03-.03c-.02 0-.03 0-.03-.02v-.05a.04.04 0 0 0-.04-.04.03.03 0 0 1-.02-.02.04.04 0 0 0-.03-.03.02.02 0 0 1-.02-.02c0-.02-.01-.04-.03-.04a.03.03 0 0 1-.03-.02c0-.02 0-.04-.03-.04-.01 0-.02 0-.02-.02 0-.01 0-.03-.02-.03a.04.04 0 0 1-.04-.04.02.02 0 0 0-.02-.02c-.02 0-.04 0-.04-.03a.02.02 0 0 0-.03-.03.03.03 0 0 1-.03-.03.03.03 0 0 0-.02-.02.03.03 0 0 1-.03-.03c0-.02-.01-.03-.03-.03a.03.03 0 0 1-.03-.03.03.03 0 0 0-.03-.02.03.03 0 0 1-.02-.03.02.02 0 0 0-.02-.03c-.03 0-.04 0-.04-.03a.02.02 0 0 0-.02-.02l-.06-.02a.02.02 0 0 1-.02-.02.04.04 0 0 0-.03-.03.03.03 0 0 1-.03-.03.03.03 0 0 0-.03-.02.03.03 0 0 1-.03-.03.03.03 0 0 0-.03-.03.03.03 0 0 1-.03-.03c0-.01-.01-.02-.03-.02a.03.03 0 0 1-.03-.03c0-.02-.01-.03-.03-.03a.02.02 0 0 1-.02-.01c0-.04-.02-.04-.04-.05C20 9.04 20 9.01 20 9a.02.02 0 0 1 .01-.01.2.2 0 0 1 .09 0 .02.02 0 0 1 0 .02.03.03 0 0 0 .04.03h.05c.02 0 .03.02.03.04a.02.02 0 0 0 .02.02h.02a.03.03 0 0 1 .02.02.03.03 0 0 0 .03.03h.05a.03.03 0 0 1 .03.04.02.02 0 0 0 .03.02.04.04 0 0 1 .03.03.03.03 0 0 0 .02.02l.06.01a.03.03 0 0 1 .03.02l.01.03a.04.04 0 0 1 .05.04c0 .01 0 .02.02.02a.03.03 0 0 1 .04.03.03.03 0 0 0 0 .02c.03 0 .05 0 .08.02a.02.02 0 0 1 .02.02c0 .01.01.02.03.02a.03.03 0 0 1 .03.03.03.03 0 0 0 .03.03.03.03 0 0 1 .02.02.03.03 0 0 0 .04.03.03.03 0 0 1 .02.03c0 .02.01.03.03.03a.03.03 0 0 1 .03.02.03.03 0 0 0 .03.03.03.03 0 0 1 .02.03.03.03 0 0 0 .03.03.03.03 0 0 1 .03.03.03.03 0 0 0 .03.03.03.03 0 0 1 .02.02.04.04 0 0 0 .04.04.02.02 0 0 1 .02.02.04.04 0 0 0 .02.04h.02l.02.08c0 .01.01.02.03.02a.03.03 0 0 1 .02.03.02.02 0 0 0 .03.03.03.03 0 0 1 .03.03.03.03 0 0 0 .03.03l.02.02.01.07a.02.02 0 0 0 .03.02.03.03 0 0 1 .02.03.03.03 0 0 0 .03.03.03.03 0 0 1 .03.03v.05a.03.03 0 0 0 .03.03.03.03 0 0 1 .03.02.07.07 0 0 0 0 .02l.02.02a.04.04 0 0 1 .03.04v.04a.03.03 0 0 0 .03.03c.02 0 .02.01.03.03v.06c0 .01.01.02.03.02a.02.02 0 0 1 .02.02v.07a.02.02 0 0 0 .03.02.03.03 0 0 1 .03.03v.07l.01.02c.04.02.04.05.05.08a.2.2 0 0 1 0 .04.03.03 0 0 0 .03.04.02.02 0 0 1 .02.02v.11c0 .02.01.04.03.04a.03.03 0 0 1 .03.03v.12a.02.02 0 0 0 .01.02.05.05 0 0 1 .03.03.27.27 0 0 1 .01.07v.15a.03.03 0 0 0 .03.03.03.03 0 0 1 .02.03l.01.2v.12a.26.26 0 0 0 0 .03.02.02 0 0 0 .03.02s.02 0 .02-.02a.17.17 0 0 0 0-.04v-.35a.2.2 0 0 0 0-.04.02.02 0 0 0-.02-.02.04.04 0 0 1-.03-.03v-.21a.04.04 0 0 0-.03-.04.03.03 0 0 1-.03-.03v-.15c0-.02-.01-.03-.04-.04a.02.02 0 0 1-.01-.02l-.01-.11a.03.03 0 0 0-.03-.03.02.02 0 0 1-.02-.02v-.11a.17.17 0 0 0-.02-.05v-.02c-.04 0-.04-.03-.04-.06a.06.06 0 0 0-.02-.03c0-.02-.02-.02-.03-.04a.22.22 0 0 1 0-.04.02.02 0 0 0-.02-.02h-.01a.03.03 0 0 1-.03-.03.4.4 0 0 1 0-.05.03.03 0 0 0-.03-.03c-.02 0-.03-.02-.03-.04l-.01-.02c-.03 0-.04-.02-.04-.05v-.04a.02.02 0 0 0-.02-.02h-.02a.03.03 0 0 1-.02-.03.39.39 0 0 1 0-.05.03.03 0 0 0-.03-.03c-.02 0-.03-.02-.03-.03l-.01-.03a.04.04 0 0 1-.04-.04.02.02 0 0 0-.02-.02.03.03 0 0 1-.04-.04.03.03 0 0 0-.02-.02.03.03 0 0 1-.02-.02.38.38 0 0 1-.01-.05.04.04 0 0 0-.04-.03.03.03 0 0 1-.02-.03c0-.02 0-.03-.03-.03a.03.03 0 0 1-.03-.03c0-.02 0-.03-.03-.03a.02.02 0 0 1-.02-.02.03.03 0 0 0-.03-.03.03.03 0 0 1-.03-.04.02.02 0 0 0-.01-.02c-.02 0-.04 0-.04-.03a.03.03 0 0 0-.03-.03c-.02 0-.03-.01-.03-.03a.02.02 0 0 0-.02-.02c-.02 0-.03-.01-.04-.03a.03.03 0 0 0-.03-.03.02.02 0 0 1-.02-.02.03.03 0 0 0-.03-.03.03.03 0 0 1-.03-.04c0-.01-.01-.02-.03-.02-.01 0-.02 0-.02-.02s-.02-.04-.04-.04a.02.02 0 0 1-.03-.02.04.04 0 0 0-.03-.03.03.03 0 0 1-.02-.03c0-.01 0-.02-.02-.02l-.05-.01a.03.03 0 0 1-.04-.03.03.03 0 0 0-.03-.03.03.03 0 0 1-.03-.02.03.03 0 0 0-.03-.03.03.03 0 0 1-.02-.03c0-.02-.02-.03-.04-.03a.03.03 0 0 1-.02-.01l-.01-.03-.04-.01-.03-.02a.03.03 0 0 1-.02-.02.03.03 0 0 0-.03-.02c-.02 0-.03-.01-.03-.03a.03.03 0 0 0-.03-.03.02.02 0 0 1-.03-.02c0-.02-.01-.03-.03-.03a.03.03 0 0 1-.03-.03c0-.02-.01-.02-.03-.03h-.05a.02.02 0 0 1-.02-.04l.01-.01a.47.47 0 0 1 .12 0 .04.04 0 0 1 .04.02.02.02 0 0 0 .02.02h.06a.3.3 0 0 1 .04.02.03.03 0 0 1 .02.01.04.04 0 0 0 .04.03.04.04 0 0 1 .04.04.02.02 0 0 0 .02.02h.07a.02.02 0 0 1 .02.02.03.03 0 0 0 .03.03.28.28 0 0 1 .04.02l.02.01a.04.04 0 0 0 .05.03.03.03 0 0 1 .03.03.03.03 0 0 0 .03.03.03.03 0 0 1 .02.02.03.03 0 0 0 .03.03.51.51 0 0 1 .06.02l.01.01a.04.04 0 0 0 .04.03.03.03 0 0 1 .03.03.03.03 0 0 0 .03.03.03.03 0 0 1 .03.02l.01.03a.04.04 0 0 1 .04.04l.03.02a.03.03 0 0 1 .03.03.02.02 0 0 0 .02.02c.03 0 .04.02.04.04a.02.02 0 0 0 .02.02.03.03 0 0 1 .03.03.03.03 0 0 0 .03.03c.01 0 .03 0 .03.02a.04.04 0 0 0 .03.03.02.02 0 0 1 .02.03c0 .02.01.03.03.03a.03.03 0 0 1 .03.03c0 .02 0 .03.03.03a.03.03 0 0 1 .03.03.04.04 0 0 0 .03.03.02.02 0 0 1 .01.02l.02.06a.03.03 0 0 0 .02.02.04.04 0 0 1 .03.04.02.02 0 0 0 .02.02c.03 0 .04.01.04.04V10c.06 0 .04.05.06.08a.03.03 0 0 0 .02.03.03.03 0 0 1 .03.02v.02a.03.03 0 0 0 .03.02.03.03 0 0 1 .01.02l.02.06a.03.03 0 0 0 .03.03.03.03 0 0 1 .02.02v.05a.03.03 0 0 0 .04.04.02.02 0 0 1 .01.01.23.23 0 0 0 .02.07l.01.02c.03 0 .03.02.03.05a.03.03 0 0 0 .03.02.03.03 0 0 1 .02.03v.05a.03.03 0 0 0 .04.03.03.03 0 0 1 .01.02l.02.08a.03.03 0 0 0 .01.02c.02 0 .03.02.03.04a.6.6 0 0 1 .01.1.03.03 0 0 0 .02.02.05.05 0 0 1 .03.05l.01.08a.04.04 0 0 0 .03.04.02.02 0 0 1 .02.02v.12a.03.03 0 0 0 .02.03.03.03 0 0 1 .03.02v.07l.01.1a.03.03 0 0 0 .03.03.03.03 0 0 1 .02.03.63.63 0 0 1 0 .1v.11a.13.13 0 0 0 .01.03l.03.02a.02.02 0 0 0 .02-.02.06.06 0 0 0 0-.02v-.22a.17.17 0 0 0 0-.03.06.06 0 0 0-.04-.04.05.05 0 0 1-.02-.05v-.15c0-.03 0-.04-.03-.05a.03.03 0 0 1-.01-.02.53.53 0 0 1-.01-.06 1 1 0 0 1 0-.09.04.04 0 0 0-.04-.04.02.02 0 0 1-.02-.02v-.1a.18.18 0 0 0 0-.03l-.02-.02a.04.04 0 0 1-.03-.03.53.53 0 0 0-.01-.07.03.03 0 0 0-.02-.01.04.04 0 0 1-.03-.04v-.09a.04.04 0 0 0-.04-.04.02.02 0 0 1-.02-.02.43.43 0 0 1 0-.06c0-.02-.01-.03-.03-.03a.03.03 0 0 1-.03-.02.06.06 0 0 0-.03-.06.05.05 0 0 1-.01-.02.2.2 0 0 1-.01-.04.03.03 0 0 0-.03-.04.02.02 0 0 1-.03-.02v-.06a.02.02 0 0 0-.02-.02.03.03 0 0 1-.03-.03.04.04 0 0 0-.03-.04.02.02 0 0 1-.02-.02l-.01-.06-.02-.02c-.03 0-.04-.02-.04-.04a.03.03 0 0 0-.02-.02.03.03 0 0 1-.03-.03l-.01-.05a.03.03 0 0 0-.02-.02.04.04 0 0 1-.03-.04.02.02 0 0 0-.02-.02c-.02 0-.03-.01-.04-.03a.03.03 0 0 0-.03-.03l-.02-.03a.03.03 0 0 0-.03-.03.02.02 0 0 1-.02-.02l-.02-.03a.05.05 0 0 1-.04-.05l-.03-.02a.02.02 0 0 1-.02-.02.4.4 0 0 1-.01-.05.03.03 0 0 0-.03-.03.03.03 0 0 1-.03-.03.03.03 0 0 0-.03-.03c-.02 0-.02-.01-.02-.02a.02.02 0 0 0-.02-.03h-.02a.03.03 0 0 1-.02-.02.03.03 0 0 0-.04-.03l-.03-.01c-.03 0-.03-.02-.04-.04a.03.03 0 0 0-.02-.02.03.03 0 0 1-.03-.03.03.03 0 0 0-.03-.02.03.03 0 0 1-.03-.03c0-.02-.01-.03-.03-.03l-.02-.01a.05.05 0 0 0-.05-.05.02.02 0 0 1-.02-.02c0-.02 0-.03-.02-.03a.03.03 0 0 1-.03-.02.03.03 0 0 0-.03-.03l-.05-.02a.02.02 0 0 1-.02-.02.03.03 0 0 0-.04-.02.03.03 0 0 1-.03-.03.03.03 0 0 0-.03-.03.03.03 0 0 1-.03-.03.03.03 0 0 0-.03-.03.03.03 0 0 1-.02-.02.03.03 0 0 0-.03-.03h-.06a.02.02 0 0 1-.02-.03.04.04 0 0 0-.04-.03c-.01 0-.02-.01-.02-.03 0 0 0-.02-.02-.02a.3.3 0 0 1-.06-.02.02.02 0 0 1-.02-.01.03.03 0 0 0-.03-.03h-.02a.03.03 0 0 1-.01-.05.02.02 0 0 1 .01 0h.06a.03.03 0 0 1 .04.02.03.03 0 0 0 .02.02.41.41 0 0 0 .05 0c.03 0 .04.02.04.04a.02.02 0 0 0 .02.02h.06a.03.03 0 0 1 .03.03c0 .02.01.03.03.03.01 0 .03 0 .03.02a.04.04 0 0 0 .04.03.27.27 0 0 1 .05.01.03.03 0 0 1 .02.02c0 .02 0 .03.03.03a.03.03 0 0 1 .03.03.03.03 0 0 0 .03.03h.06a.02.02 0 0 1 .02.02c0 .02 0 .03.02.03a.03.03 0 0 1 .03.04l.03.02c.01 0 .03 0 .03.02s.02.04.04.04a.02.02 0 0 1 .03.02.03.03 0 0 0 .02.02.28.28 0 0 0 .04.01c.03 0 .04.02.04.04a.02.02 0 0 0 .02.02c.02 0 .04 0 .04.03 0 .02.01.02.03.03a.03.03 0 0 1 .02.02.03.03 0 0 0 .03.03c.01 0 .02 0 .02.02s.02.04.05.04a.02.02 0 0 1 .01.02.04.04 0 0 0 .04.03.02.02 0 0 1 .02.02.03.03 0 0 0 .04.04c.01 0 .02.01.02.03a.03.03 0 0 0 .03.03c.02 0 .02 0 .02.03a.02.02 0 0 0 .03.02.03.03 0 0 1 .03.03.03.03 0 0 0 .03.03.02.02 0 0 1 .02.02c0 .02.01.04.04.04a.02.02 0 0 1 .02.02c0 .02 0 .03.03.03a.03.03 0 0 1 .03.03c0 .02 0 .03.03.03a.02.02 0 0 1 .01.02l.02.07a.02.02 0 0 0 .02.01.03.03 0 0 1 .03.03.15.15 0 0 0 .03.07.06.06 0 0 1 .03.05.02.02 0 0 0 .03.02s.02 0 .02.02a.05.05 0 0 0 .04.04l.02.03.01.03c.02 0 .04.01.04.03a.35.35 0 0 0 0 .06.02.02 0 0 0 .02.02h.02a.03.03 0 0 1 .02.03v.04c0 .04 0 .04.04.09a.07.07 0 0 1 .02.03.11.11 0 0 0 .04.07.04.04 0 0 1 .01.03.1.1 0 0 0 .04.07.07.07 0 0 1 .02.06l.02.06.01.01a.03.03 0 0 1 .02.03.04.04 0 0 0 .04.05.02.02 0 0 1 .02.02v.1a.03.03 0 0 0 .03.04.04.04 0 0 1 .02.04l.01.1a.03.03 0 0 0 .03.03.02.02 0 0 1 .02.02v.1a.68.68 0 0 0 .01.1.07.07 0 0 0 .03.06.04.04 0 0 1 .02.03v.11a.03.03 0 0 0 .03.03.02.02 0 0 1 .01.02l.01.09v.17l.01.1a.03.03 0 0 0 .02.01.02.02 0 0 0 .03-.01.28.28 0 0 0 0-.03v-.3a.15.15 0 0 0-.03-.09.1.1 0 0 1-.02-.06l-.01-.16s0-.02-.02-.02a.04.04 0 0 1-.03-.04v-.16a.03.03 0 0 0-.03-.02.04.04 0 0 1-.03-.04v-.1a.02.02 0 0 0-.02-.03.03.03 0 0 1-.03-.03.58.58 0 0 0-.02-.12.02.02 0 0 0-.02-.02.03.03 0 0 1-.02-.02.4.4 0 0 1 0-.05.19.19 0 0 0-.02-.07.03.03 0 0 0-.02-.02.04.04 0 0 1-.02-.03l-.01-.06a.03.03 0 0 0-.01-.02.04.04 0 0 1-.04-.04c0-.02 0-.03-.02-.03h-.01a.02.02 0 0 1-.02-.02v-.07a.02.02 0 0 0-.03-.02.03.03 0 0 1-.02-.03.14.14 0 0 1 0-.03c0-.03-.03-.06-.03-.08l-.03-.03a.26.26 0 0 1-.01-.03.02.02 0 0 0-.02-.01.04.04 0 0 1-.03-.04.02.02 0 0 0-.03-.03.03.03 0 0 1-.02-.02l-.01-.06A.03.03 0 0 0 22 9.9a.03.03 0 0 1-.03-.04c0-.02-.01-.03-.03-.03a.02.02 0 0 1-.03-.02c0-.02 0-.04-.03-.04a.02.02 0 0 1-.02-.02V9.7a.04.04 0 0 0-.04-.04.02.02 0 0 1-.02-.01.03.03 0 0 0-.03-.04.02.02 0 0 1-.02-.02.04.04 0 0 0-.04-.04c-.02 0-.02-.02-.02-.03a.03.03 0 0 0-.03-.03.03.03 0 0 1-.03-.03.03.03 0 0 0-.02-.02.03.03 0 0 1-.03-.03.04.04 0 0 0-.03-.04c-.02 0-.02-.01-.03-.02a.04.04 0 0 0-.02-.04.03.03 0 0 1-.03-.02.04.04 0 0 0-.03-.02c-.02 0-.02-.02-.03-.04a.03.03 0 0 0-.01-.02c-.03 0-.05-.02-.05-.04a.02.02 0 0 0 0-.02.08.08 0 0 1-.05-.04.02.02 0 0 0-.02-.01c-.02 0-.04-.01-.04-.04 0-.01-.01-.02-.03-.02a.04.04 0 0 1-.03-.03.02.02 0 0 0-.02-.02.03.03 0 0 1-.03-.03.03.03 0 0 0-.03-.03c-.01 0-.03 0-.03-.02a.03.03 0 0 0-.03-.03.03.03 0 0 1-.03-.03.03.03 0 0 0-.03-.03.02.02 0 0 1-.02-.02.03.03 0 0 0-.03-.03.03.03 0 0 1-.03-.02l-.01-.03-.04-.01a.03.03 0 0 1-.01-.02.04.04 0 0 0-.04-.03l-.04-.01a.02.02 0 0 1-.03-.02c0-.02 0-.03-.02-.03a.03.03 0 0 1-.04-.03.03.03 0 0 0-.03-.03.03.03 0 0 1-.02-.02.03.03 0 0 0-.03-.03l-.06-.01a.02.02 0 0 1-.01-.02c0-.02-.02-.03-.04-.03a.03.03 0 0 1-.03-.03.03.03 0 0 0-.03-.03.03.03 0 0 1-.02-.02.03.03 0 0 0-.03-.03l-.06-.01a.02.02 0 0 1-.02-.02v-.02a.05.05 0 0 0-.04-.03v-.03h.06a.03.03 0 0 1 .04.02.03.03 0 0 0 .03.02h.04a.04.04 0 0 1 .04.04.02.02 0 0 0 .02.02h.06c.02 0 .03.02.03.04a.02.02 0 0 0 .02.02.4.4 0 0 0 .05 0 .03.03 0 0 1 .04.03c0 .02.01.02.02.02a.04.04 0 0 1 .05.04.02.02 0 0 0 .02.02.8.8 0 0 0 .05 0 .03.03 0 0 1 .03.03.03.03 0 0 0 .02.03h.06a.02.02 0 0 1 .02.02.04.04 0 0 0 .04.03.03.03 0 0 1 .03.03c0 .02 0 .03.02.03h.05a.03.03 0 0 1 .03.03.04.04 0 0 0 .03.03.04.04 0 0 1 .03.03.02.02 0 0 0 .03.02c.02 0 .03 0 .03.03 0 .02.02.03.03.03a.03.03 0 0 1 .04.02.02.02 0 0 0 .02.03.54.54 0 0 1 .06.02.03.03 0 0 1 .01.02.03.03 0 0 0 .04.02.02.02 0 0 1 .02.03.03.03 0 0 0 .04.03l.01.01c0 .04.03.04.06.05l.01.02a.02.02 0 0 0 .02.03.03.03 0 0 1 .03.03.03.03 0 0 0 .03.03.03.03 0 0 1 .03.03.02.02 0 0 0 .03.02.03.03 0 0 1 .03.03v.01a.02.02 0 0 0 .02.02h.03v.04l.04.01a.02.02 0 0 0 .02-.02c0-.02 0-.03-.02-.03a.03.03 0 0 0-.01 0h-.03z"/><path fill="#797899" d="M6.03 13.32V9.9v3.42z"/><path fill="#020202" d="M31.78 10.8h3.44V7.83h-3.44v2.95zM7.77 12.26a1.15 1.15 0 0 1-1.15 1.06h-.59V9.9h.59a1.15 1.15 0 0 1 1.15 1.15zm.03-4.34H2.92v10.61h3.11V15.4H7.8a3.11 3.11 0 0 0 3.11-3.1v-1.25A3.11 3.11 0 0 0 7.8 7.92zm16.49 10.6h3.44V7.82h-3.44v10.7zm7.49 0h3.44v-7.06h-3.44v7.06z"/><path fill="#020202" d="M24.29 18.5h6.93v-3.23h-6.93v3.23z"/><path fill="#221f20" d="M35.69 17.66v-.19h.85v.2h-.31v.83H36v-.84h-.31zm1.29-.19.24.71.23-.7h.32v1.02h-.22v-.73l-.25.73h-.18l-.25-.72v.72h-.21v-1.03h.32z"/></svg></g></svg>
