<svg xmlns="http://www.w3.org/2000/svg" width="24" height="24" aria-hidden="true" focusable="false" viewBox="0 0 24 24"><title>Samsung Pay</title><defs><clipPath id="pm-samsung-pay-rounded"><rect width="24" height="24" rx="5"/></clipPath></defs><g clip-path="url(#pm-samsung-pay-rounded)"><rect width="24" height="24" fill="#fff"/><rect width="22.5" height="22.5" x=".75" y=".75" fill="none" stroke="#E5E7EB" rx="4.25"/><svg x=".75" y="4.688" width="22.5" height="14.625" viewBox="0 0 40 26" preserveAspectRatio="xMidYMid meet"><path fill="#3056d3" d="M30.56 10.37a9.13 9.13 0 0 0-2.21-5.13 9.12 9.12 0 0 0-5.13-2.21 19.77 19.77 0 0 0-3.2-.2 19.77 19.77 0 0 0-3.2.2 9.13 9.13 0 0 0-5.13 2.21 9.13 9.13 0 0 0-2.22 5.13 19.77 19.77 0 0 0-.19 3.2 19.77 19.77 0 0 0 .19 3.2 9.13 9.13 0 0 0 2.22 5.14 9.12 9.12 0 0 0 5.12 2.21 19.77 19.77 0 0 0 3.2.2 19.77 19.77 0 0 0 3.21-.2 9.13 9.13 0 0 0 5.13-2.21 9.12 9.12 0 0 0 2.21-5.13 19.77 19.77 0 0 0 .2-3.2 19.72 19.72 0 0 0-.2-3.2zM14.88 15.7h-.43v-.91h.43a1.47 1.47 0 0 0 1.51-1.46 1.51 1.51 0 0 0-1.51-1.52H13.5a.16.16 0 0 0-.16.16v5.14h-.93v-5.14a1.1 1.1 0 0 1 1.09-1.1h1.37a2.45 2.45 0 0 1 2.45 2.46 2.4 2.4 0 0 1-2.45 2.37zm7.82-2.27v2.28h-.93v-2.37a1.6 1.6 0 0 0-1.6-1.52 1.56 1.56 0 0 0-1.52 1.52 1.44 1.44 0 0 0 1.58 1.43h.29v.94h-.3a2.35 2.35 0 0 1-2.5-2.37 2.5 2.5 0 0 1 2.45-2.45 2.53 2.53 0 0 1 2.53 2.45zm.15-2.39h1.04l1.21 2.52-.52 1.04zM25 17.26h-1.04l3.06-6.23h1.04z"/><g fill="#fff"><path d="M13.51 10.87a1.1 1.1 0 0 0-1.09 1.09v2.86h.93v-2.86a.16.16 0 0 1 .16-.16h.9v-.93zm1.37 0h-.03v.93h.03a1.51 1.51 0 0 1 1.51 1.52 1.47 1.47 0 0 1-1.51 1.46h-.43v.91h.43a2.39 2.39 0 0 0 2.45-2.37 2.45 2.45 0 0 0-2.45-2.45z"/><path d="M14.41 10.87h.44v.93h-.44zm5.76.01a2.5 2.5 0 0 0-2.46 2.45 2.35 2.35 0 0 0 2.52 2.37h.29v-.94h-.3a1.44 1.44 0 0 1-1.57-1.43 1.56 1.56 0 0 1 1.52-1.52 1.6 1.6 0 0 1 1.6 1.52v.09h.93v-.1a2.53 2.53 0 0 0-2.53-2.44zm-7.75 4.4h.93v1.82h-.93z"/><path d="M12.42 14.82h.93v.47h-.93zm9.35-.83h.93v1.71h-.93zm0-.57h.93v.57h-.93zm3.33.13-1.2-2.52h-1.05l1.73 3.56zm-1.13 3.71H25l3.06-6.23h-1.04l-3.06 6.23z"/></g></svg></g></svg>
