<svg xmlns="http://www.w3.org/2000/svg" width="24" height="24" aria-hidden="true" focusable="false" viewBox="0 0 24 24"><title>Skrill</title><defs><clipPath id="pm-skrill-rounded"><rect width="24" height="24" rx="5"/></clipPath></defs><g clip-path="url(#pm-skrill-rounded)"><rect width="24" height="24" fill="#fff"/><rect width="22.5" height="22.5" x=".75" y=".75" fill="none" stroke="#E5E7EB" rx="4.25"/><svg x=".75" y="4.688" width="22.5" height="14.625" viewBox="0 0 40 26" preserveAspectRatio="xMidYMid meet"><defs><linearGradient id="a" x1="3.67" x2="35.59" y1="28.39" y2="-1.74" gradientUnits="userSpaceOnUse"><stop offset="0" stop-color="#812268"/><stop offset="1" stop-color="#4f2756"/></linearGradient></defs><path fill="url(#a)" d="M0 0h40v25.95H0z"/><path fill="#fff" d="M26.46 10.4a1.2 1.2 0 1 0-1.2-1.21 1.2 1.2 0 0 0 1.2 1.2zm-9.24.64a8.53 8.53 0 0 1-1.4 2.4V8.52l-2.52.5v8.89h2.53v-2.75a9.54 9.54 0 0 1 1.09 2.75h3.02a19.59 19.59 0 0 0-1.6-3.54 11.07 11.07 0 0 0 1.77-3.34zm6.64-.09c-2.26.07-3.41 1.09-3.41 3.1v3.87h2.46v-3.15c0-1.21.16-1.73 1.6-1.78v-2a3.41 3.41 0 0 0-.65-.04zm-14.8 1.07c-.3-.02-1.02-.06-1.02-.7 0-.79 1.03-.79 1.42-.79a8.52 8.52 0 0 1 2.19.4l.65.24.03.01V9.05l-.04-.01a8.74 8.74 0 0 0-3.2-.51c-2.76 0-3.74 1.6-3.74 2.98 0 .8.34 2.66 3.5 2.88.27.02.98.06.98.72 0 .55-.59.88-1.56.88a7.68 7.68 0 0 1-2.75-.54v2.2a12.8 12.8 0 0 0 3.26.37c2.7 0 3.9-1.52 3.9-3.03 0-1.7-1.34-2.82-3.61-2.97zm16.17 5.9h2.45v-6.87h-2.45v6.87zm7.06-8.95v8.95h2.45V8.53l-2.45.44zm-3.57 0 2.44-.44v9.39h-2.44V8.97z"/></svg></g></svg>
