<svg xmlns="http://www.w3.org/2000/svg" width="24" height="24" aria-hidden="true" focusable="false" viewBox="0 0 24 24"><title>POS terminal</title><defs><clipPath id="pos-rounded"><rect width="24" height="24" rx="5"/></clipPath></defs><g clip-path="url(#pos-rounded)"><rect width="24" height="24" fill="#F8FAFC"/><rect width="22.5" height="22.5" x=".75" y=".75" fill="none" stroke="#E5E7EB" rx="4.25"/><rect width="10.8" height="15.4" x="6.6" y="3.6" fill="#111827" rx="1.8"/><rect width="8.2" height="5.4" x="7.9" y="5" fill="#E5F0FF" rx=".8"/><path fill="#CBD5E1" d="M8.2 11.3h2v1.6h-2zm2.9 0h2v1.6h-2zm2.9 0h2v1.6h-2zM8.2 14h2v1.6h-2zm2.9 0h2v1.6h-2zm2.9 0h2v1.6h-2z"/><path fill="#22C55E" d="M8.2 16.7h2v1.4h-2z"/><path fill="#F97316" d="M14 16.7h2v1.4h-2z"/></g></svg>
